<?xml version="1.0" encoding="UTF-8" standalone="no"?>
<!-- Created with Inkscape (http://www.inkscape.org/) -->

<svg
   version="1.1"
   id="svg1"
   width="1024"
   height="1024"
   viewBox="0 0 1024 1024"
   sodipodi:docname="awraLogoBlando.svg"
   inkscape:version="1.4.2 (f4327f4, 2025-05-13)"
   xmlns:inkscape="http://www.inkscape.org/namespaces/inkscape"
   xmlns:sodipodi="http://sodipodi.sourceforge.net/DTD/sodipodi-0.dtd"
   xmlns:xlink="http://www.w3.org/1999/xlink"
   xmlns="http://www.w3.org/2000/svg"
   xmlns:svg="http://www.w3.org/2000/svg">
  <defs
     id="defs1">
    <linearGradient
       id="swatch2"
       inkscape:swatch="solid">
      <stop
         style="stop-color:#ffffff;stop-opacity:1;"
         offset="0"
         id="stop2" />
    </linearGradient>
    <linearGradient
       id="swatch1"
       inkscape:swatch="solid">
      <stop
         style="stop-color:#ffffff;stop-opacity:1;"
         offset="0"
         id="stop1" />
    </linearGradient>
    <linearGradient
       inkscape:collect="always"
       xlink:href="#swatch1"
       id="linearGradient2"
       x1="181.26526"
       y1="518.39984"
       x2="855.20209"
       y2="518.39984"
       gradientUnits="userSpaceOnUse"
       gradientTransform="translate(1.2688895,-13.957869)" />
  </defs>
  <sodipodi:namedview
     id="namedview1"
     pagecolor="#ffffff"
     bordercolor="#000000"
     borderopacity="0.25"
     inkscape:showpageshadow="2"
     inkscape:pageopacity="0.0"
     inkscape:pagecheckerboard="0"
     inkscape:deskcolor="#d1d1d1"
     inkscape:zoom="0.78808594"
     inkscape:cx="512"
     inkscape:cy="512"
     inkscape:window-width="1920"
     inkscape:window-height="1009"
     inkscape:window-x="-8"
     inkscape:window-y="-8"
     inkscape:window-maximized="1"
     inkscape:current-layer="g1" />
  <g
     inkscape:groupmode="layer"
     inkscape:label="Image"
     id="g1"
     style="display:inline">
    <path
       style="fill:#ffffff;fill-opacity:1;stroke:url(#linearGradient2)"
       d="m 268.53779,929.05677 c -8.89302,-4.53172 -9.26369,-19.13331 -0.62933,-24.79076 3.21807,-2.10855 9.46374,-2.14689 13.45566,-0.0826 3.63731,1.88092 3.86459,2.65656 1.42367,4.85848 -1.52569,1.37631 -1.99882,1.39617 -3.69113,0.15499 -2.70762,-1.98582 -6.90381,-1.77468 -9.69809,0.48798 -3.07312,2.48846 -3.33006,9.80734 -0.45579,12.98337 2.28674,2.52682 8.12373,2.84146 10.63032,0.57303 1.53745,-1.39138 1.84334,-1.30219 3.33339,0.97191 1.5915,2.42893 1.55712,2.54704 -1.14861,3.94623 -4.90362,2.53576 -9.40525,2.84132 -13.22009,0.89735 z m 52.25616,0.65857 c -6.03324,-1.27773 -9.25616,-5.95816 -9.25616,-13.44211 0,-9.96368 7.33719,-15.90236 16.51602,-13.36796 4.56343,1.26002 6.04283,3.232 4.29585,5.72617 -1.19989,1.71308 -1.58944,1.7776 -3.27792,0.54296 -3.20053,-2.34028 -8.10504,-1.7619 -10.46137,1.23369 -3.08885,3.92683 -2.38692,11.1199 1.32712,13.59983 1.89137,1.2629 6.86738,0.83358 8.60924,-0.74278 1.49527,-1.3532 1.85598,-1.29865 3.5119,0.53113 1.66299,1.83758 1.69296,2.19174 0.30303,3.58167 -2.06747,2.06747 -7.58141,3.18163 -11.56771,2.3374 z m 253.10084,0.0663 c -4.38193,-1.76832 -5.357,-4.72266 -5.357,-16.23092 v -10.7775 h 2.46617 c 2.45101,0 2.46791,0.0661 2.75,10.75 0.27369,10.3661 0.36615,10.76167 2.58887,11.07677 4.3707,0.61959 5.19496,-1.27633 5.19496,-11.94921 0,-9.86939 0.002,-9.87756 2.5,-9.87756 h 2.5 v 10.56574 c 0,5.81116 -0.48622,11.47426 -1.08049,12.58466 -0.59427,1.11041 -2.60482,2.65582 -4.46788,3.43426 -3.83147,1.60089 -4.13306,1.6189 -7.09463,0.42376 z m 25.143,-0.37195 c -4.14886,-1.88526 -6.52349,-4.81455 -7.54987,-9.31335 -1.15998,-5.08438 0.46626,-10.89336 4.05404,-14.48113 2.35961,-2.35962 3.68488,-2.84199 7.80812,-2.84199 3.33589,0 5.7136,0.60526 7.24307,1.84375 2.10368,1.70345 2.16085,2.00948 0.75135,4.02183 -1.34343,1.91801 -1.6764,1.99637 -2.7886,0.65625 -1.92024,-2.31375 -7.31937,-1.90868 -9.70576,0.72817 -2.68821,2.97035 -3.3925,6.22164 -2.13138,9.8393 1.80203,5.1693 8.41835,6.74855 11.26232,2.6882 2.16796,-3.0952 1.96607,-3.68206 -1.19228,-3.46576 -2.15962,0.1479 -2.81771,-0.29412 -3.06955,-2.06174 -0.29629,-2.0796 0.0634,-2.25 4.74899,-2.25 h 5.06955 v 7.45975 7.45974 l -2.75,-0.10217 c -1.5125,-0.0562 -4.1,0.18686 -5.75,0.5401 -1.76581,0.37804 -4.2342,0.0814 -6,-0.72095 z m 240.52058,0.26903 c -1.3637,-0.55594 -3.2798,-1.73515 -4.2581,-2.62046 -1.6424,-1.48631 -1.6546,-1.74672 -0.1602,-3.39807 1.4741,-1.62879 1.8266,-1.65205 3.9503,-0.26056 2.8907,1.89405 6.8179,1.44603 7.2511,-0.82721 0.2258,-1.18521 -1.2002,-2.47316 -4.7039,-4.24865 -5.3065,-2.68898 -7.1202,-4.93047 -7.068,-8.73481 0.068,-4.94052 5.1424,-8.13377 10.5925,-6.66545 4.6508,1.25302 6.0899,3.40308 3.8984,5.82461 -1.5633,1.72745 -1.9168,1.77383 -3.2626,0.42802 -1.8719,-1.87191 -5.6355,-1.45015 -6.0404,0.67692 -0.1951,1.02472 1.1445,2.23158 3.8124,3.43464 7.6518,3.45049 9.9843,9.11736 5.7179,13.89211 -2.655,2.97144 -6.284,3.90351 -9.7294,2.49891 z m -657.02422,-0.6555 c -0.002,-0.4125 2.08453,-6.4875 4.63672,-13.5 4.33298,-11.90546 4.81345,-12.74941 7.25364,-12.74116 2.45679,0.008 2.86798,0.77181 6.86669,12.75 2.33937,7.00764 4.25187,13.07866 4.25,13.49116 -0.002,0.4125 -1.15182,0.75 -2.55543,0.75 -1.93651,0 -2.80425,-0.72355 -3.59783,-3 -0.95091,-2.72779 -1.44996,-3 -5.5,-3 -4.05003,0 -4.54908,0.27221 -5.5,3 -0.77059,2.21052 -1.67796,3 -3.44798,3 -1.32119,0 -2.40381,-0.3375 -2.40581,-0.75 z m 13.47774,-13.5 c -0.37664,-1.7875 -1.0427,-3.6328 -1.48012,-4.10066 -0.72134,-0.77155 -1.06964,-0.0328 -2.64072,5.60066 -0.37615,1.34882 0.11875,1.75 2.15881,1.75 2.45998,0 2.59849,-0.22943 1.96203,-3.25 z m 14.33001,0.75169 0.30412,-13.50169 h 5.72338 c 6.73192,0 9.55611,1.61477 11.12187,6.35906 2.0236,6.13156 -1.1923,10.63603 -8.27108,11.58521 l -4.14451,0.55573 0.30752,4.25 c 0.29449,4.06978 0.18767,4.25007 -2.51894,4.25169 l -2.82647,0.002 z m 11.62446,-2.07312 c 1.90834,-1.90833 1.94381,-2.53705 0.27211,-4.82322 -0.85143,-1.16441 -2.28006,-1.66117 -4.1445,-1.44113 -2.31406,0.2731 -2.90231,0.88192 -3.15119,3.26137 -0.16829,1.60907 -0.0767,3.29657 0.20352,3.75 0.85764,1.38768 5.15619,0.91686 6.82006,-0.74702 z m 10.57143,2.07143 v -13.5 h 2.5 2.5 v 11 11 h 5 c 4.66666,0 5,0.16667 5,2.5 0,2.44445 -0.16667,2.5 -7.5,2.5 h -7.5 z m 19,0 v -13.5 h 2.5 2.5 v 13.5 13.5 h -2.5 -2.5 z m 35.16666,12.71122 c 0.18334,-0.43383 2.31257,-6.50883 4.73162,-13.5 4.12384,-11.91806 4.5614,-12.71122 7.01228,-12.71122 2.45737,0 2.89574,0.8089 7.31613,13.5 l 4.70214,13.5 h -2.86659 c -2.28603,0 -3.07839,-0.60757 -3.9124,-3 -0.95091,-2.72779 -1.44996,-3 -5.5,-3 -4.05003,0 -4.54908,0.27221 -5.5,3 -0.80522,2.30987 -1.65205,3 -3.68116,3 -1.44944,0 -2.48535,-0.35495 -2.30202,-0.78878 z m 13.48782,-14.21122 c -1.19935,-4.49335 -2.18566,-5.08663 -2.90931,-1.75 -0.26839,1.2375 -0.81899,3.0375 -1.22356,4 -0.60479,1.43882 -0.20781,1.75 2.23247,1.75 h 2.96806 z m 37.84552,1.5 v -13.5 h 2.71594 2.71594 l -0.2035,13.5 -0.20351,13.5 h -2.51243 -2.51244 z m 12.97887,10.17887 c -4.31074,-4.31073 -5.29297,-9.25866 -3.01965,-15.21125 2.33612,-6.11707 5.59855,-8.46762 11.75256,-8.46762 4.09305,0 5.42873,0.48667 7.77492,2.83286 1.55808,1.55807 3.39025,4.69326 4.07151,6.96709 1.05885,3.53414 0.98796,4.79063 -0.48839,8.65639 -2.36779,6.19997 -5.60604,8.54366 -11.80468,8.54366 -4.29018,0 -5.41662,-0.45147 -8.28627,-3.32113 z m 12.83365,-2.92887 c 4.46677,-3.29451 3.51739,-13.39004 -1.42209,-15.12219 -6.71475,-2.3547 -12.23381,3.7717 -9.86468,10.95023 0.61834,1.8736 1.87801,3.84632 2.79925,4.38384 2.35017,1.37125 6.48089,1.26813 8.48752,-0.21188 z m 11.68748,-6.21481 c 0,-11.30015 0.18073,-12.56154 1.93426,-13.5 1.06384,-0.56935 2.35361,-1.03519 2.86616,-1.03519 0.99355,0 9.19958,11.7354 9.19958,13.15629 0,0.46404 0.45,0.84371 1,0.84371 0.57143,0 1,-3 1,-7 0,-6.8 0.0714,-7 2.5,-7 h 2.5 v 13.5 13.5 h -2.38624 c -1.94615,0 -3.28328,-1.56707 -7.25,-8.49673 -2.67507,-4.67321 -5.20126,-8.49821 -5.61376,-8.5 -0.4125,-0.002 -0.75,3.82173 -0.75,8.49673 0,8.4 -0.0294,8.5 -2.5,8.5 h -2.5 z m 40.05748,8.67829 c -1.12686,-4.18484 -5.13307,-20.2133 -5.39295,-21.57666 -0.0905,-0.47476 0.85951,-1.03619 2.11112,-1.24764 2.68019,-0.4528 3.35688,0.9615 5.19646,10.86082 0.68989,3.7125 1.58935,6.75 1.99879,6.75 0.40945,0 1.48106,-3.67256 2.38135,-8.16124 1.85582,-9.25271 1.53157,-8.53888 4.08529,-8.99369 1.67756,-0.29876 2.22719,0.86257 4.09615,8.65493 2.25908,9.4189 2.57887,9.45462 4.47582,0.5 1.86978,-8.82638 1.95771,-9 4.55788,-9 1.33793,0 2.43261,0.27358 2.43261,0.60796 0,0.33438 -1.43319,6.18438 -3.18487,13 -3.07061,11.94743 -3.2802,12.39204 -5.84172,12.39204 -2.76526,0 -3.60378,-1.66324 -5.5042,-10.91784 -0.85881,-4.1822 -1.73692,-2.89204 -3.51732,5.16784 -1.17736,5.32993 -1.47488,5.75 -4.07248,5.75 -2.39686,0 -2.94985,-0.54786 -3.82193,-3.78652 z m 30.62823,-9.46333 0.18571,-13.25015 7.06429,-0.29381 c 6.97802,-0.29022 7.06429,-0.26274 7.06429,2.25 0,2.34822 -0.346,2.54381 -4.5,2.54381 -4.33334,0 -4.5,0.11111 -4.5,3 0,2.83334 0.22222,3 4,3 3.6,0 4,0.25 4,2.5 0,2.25 -0.4,2.5 -4,2.5 -3.77778,0 -4,0.16667 -4,3 0,2.88889 0.16666,3 4.5,3 4.13333,0 4.5,0.20371 4.5,2.5 0,2.43677 -0.18337,2.50001 -7.25,2.50015 l -7.25,1.5e-4 z m 21.31429,-0.25015 v -13.5 h 6.04545 c 5.0853,0 6.4353,0.38984 8.5,2.45455 2.59781,2.59781 3.09435,5.48145 1.46734,8.52155 -0.7006,1.30909 -0.55723,2.669 0.49384,4.68426 2.08498,3.99758 1.86162,6.0623 -0.96118,8.8851 -2.10606,2.10606 -3.38384,2.45454 -9,2.45454 h -6.54545 z m 12,7 c 1.76548,-2.12728 -0.40816,-4.5 -4.12245,-4.5 -2.53061,0 -2.87755,0.3617 -2.87755,3 0,2.6383 0.34694,3 2.87755,3 1.58266,0 3.43776,-0.675 4.12245,-1.5 z m -0.69172,-10.61407 c 1.62976,-2.60449 0.0996,-4.88593 -3.2769,-4.88593 -2.80852,0 -3.03138,0.2622 -3.03138,3.56643 0,3.27068 0.21967,3.54018 2.64914,3.25 1.45702,-0.17404 3.10364,-1.04276 3.65914,-1.9305 z m 21.69172,3.61407 v -13.5 h 6.44423 c 5.316,0 6.92088,0.40999 9.16667,2.34174 3.39931,2.92396 3.60919,7.51673 0.5336,11.67669 l -2.18884,2.96056 2.53901,5.01051 2.53902,5.0105 h -3 c -2.59551,0 -3.34162,-0.67415 -5.53369,-5 -1.39353,-2.75 -3.20111,-5 -4.01685,-5 -1.11312,0 -1.48315,1.24747 -1.48315,5 0,4.66667 -0.16667,5 -2.5,5 h -2.5 z m 12.42659,-3.06944 c 2.4838,-2.48381 0.33405,-5.43056 -3.96178,-5.43056 -3.29312,0 -3.46481,0.17344 -3.46481,3.5 0,3.20326 0.2483,3.5 2.92857,3.5 1.61071,0 3.63482,-0.70625 4.49802,-1.56944 z m 11.57341,3.06944 v -13.5 h 7.5 c 7.33333,0 7.5,0.0556 7.5,2.5 0,2.2963 -0.36667,2.5 -4.5,2.5 -4.33334,0 -4.5,0.11111 -4.5,3 0,2.83334 0.22222,3 4,3 3.6,0 4,0.25 4,2.5 0,2.27754 -0.38113,2.5 -4.28302,2.5 -4.03378,0 -4.27629,0.16004 -4.16731,2.75 0.10706,2.54405 0.46527,2.77283 4.78303,3.05479 4.2008,0.27433 4.6673,0.5492 4.6673,2.75 0,2.37626 -0.21148,2.44521 -7.5,2.44521 h -7.5 z m 22,0 v -13.5 h 8.5 c 8.4,0 8.5,0.0294 8.5,2.5 0,2.38889 -0.26667,2.5 -6,2.5 h -6 v 3 c 0,2.88889 0.16666,3 4.5,3 4.13333,0 4.5,0.20371 4.5,2.5 0,2.2963 -0.36667,2.5 -4.5,2.5 h -4.5 v 5.5 c 0,5.2 -0.13637,5.5 -2.5,5.5 h -2.5 z m 73,0 v -13.5 h 2.5 2.5 v 13.5 13.5 h -2.5 -2.5 z m 14.63584,11.03831 c -11.32643,-10.49698 -0.78701,-29.39991 13.16897,-23.61916 9.0656,3.7551 9.80208,19.33757 1.15535,24.44531 -4.2888,2.53346 -11.12466,2.13921 -14.32432,-0.82615 z m 13.29158,-5.17317 c 4.42673,-5.62767 1.12555,-14.36514 -5.42742,-14.36514 -2.43322,0 -3.92421,0.72384 -5.42742,2.63486 -4.42673,5.62768 -1.12555,14.36514 5.42742,14.36514 2.43322,0 3.9242,-0.72383 5.42742,-2.63486 z m 20.07256,6.75415 c 0,-0.83667 5.7989,-17.45824 8.1713,-23.4219 0.8679,-2.18154 1.6693,-2.73555 3.6163,-2.5 2.2257,0.26926 2.9753,1.62512 6.8017,12.30261 2.3651,6.6 4.3251,12.5625 4.3555,13.25 0.03,0.68789 -1.0924,1.25 -2.4968,1.25 -1.9365,0 -2.8042,-0.72355 -3.5978,-3 -0.9509,-2.72779 -1.45,-3 -5.5,-3 -4.0501,0 -4.5491,0.27221 -5.5,3 -0.7706,2.21052 -1.678,3 -3.448,3 -1.3212,0 -2.4022,-0.39632 -2.4022,-0.88071 z m 13.9549,-11.36929 c -0.025,-0.6875 -0.6184,-2.59467 -1.3191,-4.23816 l -1.2741,-2.98815 -1.1808,3.38738 c -1.6324,4.68264 -1.5271,5.08893 1.3191,5.08893 1.375,0 2.4797,-0.5625 2.4549,-1.25 z m 14.0451,-0.27144 c 0,-12.34602 0.035,-12.5372 2.4706,-13.64711 2.8212,-1.28542 4.1649,-0.0599 9.2088,8.39871 1.5513,2.60158 3.1656,4.73908 3.5872,4.75 0.4216,0.0109 0.6466,-3.01766 0.5,-6.73016 -0.2501,-6.33259 -0.1274,-6.76976 1.9834,-7.06955 2.226,-0.31614 2.25,-0.19156 2.25,11.66821 0,6.59327 0.2732,12.69957 0.607,13.56956 0.4531,1.18062 -0.023,1.58178 -1.8757,1.58178 -2.0773,0 -3.3602,-1.51033 -7.857,-9.25 l -5.3743,-9.25 -0.2875,9.25 c -0.2824,9.08457 -0.3316,9.25 -2.75,9.25 h -2.4625 z m 27,-0.97856 v -13.5 h 2.5 2.5 v 13.5 13.5 h -2.5 -2.5 z m 12.221,0.25 0.279,-13.25 2.7606,-0.31744 c 2.5048,-0.28804 3.0374,0.26774 5.7492,6 1.6438,3.47459 2.989,6.87994 2.9894,7.56744 0,3.099 1.7315,0.62448 4.3772,-6.26245 2.9669,-7.72332 4.4174,-8.86991 7.8907,-6.23755 1.3434,1.01812 1.7035,3.52278 1.9412,13.5019 l 0.2917,12.25189 -2.75,-0.002 -2.75,-0.002 -0.053,-8.25 -0.053,-8.25 -3.1974,6.46149 c -1.7586,3.55381 -3.7385,6.62165 -4.3997,6.81741 -0.6613,0.19575 -2.7766,-2.71191 -4.7009,-6.46149 l -3.4985,-6.81741 -0.049,8.25 c -0.049,8.14562 -0.081,8.25 -2.5783,8.25 h -2.529 z m 34.8321,0 c 4.5244,-12.5981 4.8927,-13.25 7.4859,-13.25 2.5938,0 2.939,0.61201 7.0499,12.5 2.3774,6.875 4.3425,12.8375 4.3669,13.25 0.024,0.4125 -1.1042,0.75 -2.5078,0.75 -1.9365,0 -2.8042,-0.72355 -3.5978,-3 -0.9526,-2.73249 -1.4461,-3 -5.5349,-3 -4.0695,0 -4.5948,0.28037 -5.6214,3 -0.8633,2.28723 -1.758,3 -3.7658,3 h -2.6335 z m 9.5143,0.25 c -2.0003,-7.05104 -1.7638,-6.79095 -3.1832,-3.5 -1.9055,4.4179 -1.6727,5.5 1.1832,5.5 2.0899,0 2.4619,-0.372 2,-2 z m 14.4326,-0.5 v -13.5 h 2.5 2.5 v 11 11 h 5 c 4.6667,0 5,0.16667 5,2.5 0,2.44445 -0.1666,2.5 -7.5,2.5 h -7.5 z m 21,0 v -13.5 h 7 c 3.85,0 7,0.4132 7,0.91822 0,0.50501 0.2732,1.63001 0.607,2.5 0.5047,1.31513 -0.2539,1.58178 -4.5,1.58178 -5.0078,0 -5.107,0.0583 -5.107,3 0,2.81832 0.2352,3 3.8834,3 3.0038,0 3.9984,0.4399 4.3912,1.9421 0.685,2.61934 0.048,3.0579 -4.4412,3.0579 -3.5926,0 -3.8334,0.18841 -3.8334,3 0,2.93334 0.1111,3 5,3 4.6667,0 5,0.16667 5,2.5 0,2.44445 -0.1666,2.5 -7.5,2.5 h -7.5 z M 380.68036,900.86135 c -1.01985,-0.6303 -0.94543,-1.1424 0.35497,-2.4428 2.00588,-2.00588 3.50246,-2.1203 3.50246,-0.26776 0,1.99093 -2.34997,3.64222 -3.85743,2.71056 z m 279.46441,-31.02123 c -5.47471,-0.39321 -8.17094,-1.02645 -8.80029,-2.06689 -8.86275,-14.65172 -20.06243,-34.26987 -22.74988,-39.8503 l -3.44319,-7.1497 h -11.87549 -11.87549 l 0.25721,22.03369 c 0.32827,28.11962 1.40486,26.46631 -17.23421,26.46631 h -13.05881 l -2.41342,-2.80576 -2.41341,-2.80576 v -70.94424 c 0,-69.6109 0.0376,-70.98183 2,-72.94424 1.92657,-1.92657 3.33333,-2 38.31763,-2 32.34984,0 37.075,0.20446 43.25,1.87145 15.70045,4.23845 22.87575,9.5675 28.78775,21.38055 4.6889,9.36916 6.6446,17.2893 6.6446,26.90888 0,18.75417 -5.4963,28.41885 -22.2605,39.1428 -3.1567,2.01932 -5.7395,3.89078 -5.7395,4.15882 0,0.69492 5.908,11.54432 14.0421,25.78697 3.848,6.73779 8.9,15.95076 11.2267,20.47326 4.2179,8.19878 4.2244,8.22827 2.2307,10.12905 -2.3452,2.23591 -12.286,3.12052 -24.8925,2.21511 z m -18.9846,-81.69199 c 13.28191,-6.30267 13.30749,-31.07451 0.0393,-38.08553 -2.41746,-1.2774 -7.2811,-1.83679 -20.6617,-2.3764 -15.34281,-0.61874 -17.65409,-0.51004 -18.75,0.88178 -0.9037,1.1477 -1.25,7.02929 -1.25,21.22972 0,10.80321 0.19075,19.83295 0.42389,20.06609 0.23314,0.23314 8.58781,0.31517 18.56593,0.18229 14.44515,-0.19236 18.85333,-0.57911 21.63256,-1.89795 z m 69.7321,81.98685 c -1.1801,-0.26041 -2.833,-1.23584 -3.6731,-2.16761 -1.3856,-1.53678 -0.6464,-4.15558 7.9577,-28.19414 11.969,-33.4393 19.9413,-55.88666 27.5247,-77.5 5.3785,-15.32923 12.7764,-33.89325 16.138,-40.49648 1.6791,-3.29819 4.2409,-3.74378 22.3374,-3.8852 13.076,-0.10219 15.4205,0.12018 17.2031,1.63168 2.4005,2.03548 4.0554,6.14444 29.3006,72.75 25.5443,67.39492 24.8338,65.56813 26.9353,69.25054 l 1.855,3.25054 -3.31,1.38302 c -8.4985,3.55087 -31.4904,5.18372 -33.3142,2.3659 -0.4449,-0.6875 -3.3285,-7.55 -6.408,-15.25 l -5.599,-14 -25.401,-0.28125 c -13.9705,-0.15469 -26.4355,-0.0281 -27.6999,0.28134 -2.6091,0.63847 -4.7258,4.94471 -9.3395,18.99991 -1.6248,4.95 -3.4959,9.52242 -4.1579,10.16093 -1.2386,1.19462 -26.283,2.59815 -30.3492,1.70082 z m 87.4634,-62.6498 c 0.1889,-0.98342 -1.8115,-7.73342 -4.4454,-15 -2.6338,-7.26657 -6.4398,-18.83695 -8.4577,-25.71195 -2.2252,-7.58162 -4.1726,-12.5 -4.9492,-12.5 -1.877,0 -19.0266,52.59959 -17.6953,54.27301 0.765,0.96153 5.1957,1.20621 18.1085,1 15.5012,-0.24755 17.1276,-0.43976 17.4391,-2.06106 z m -607.10652,61.28496 c -3.18376,-0.40747 -5.95664,-0.91097 -6.16196,-1.11888 -0.37163,-0.37631 1.94904,-8.4018 5.4588,-18.87803 1.01344,-3.025 4.38758,-12.025 7.49808,-20 3.11051,-7.975 12.41423,-32.5 20.67493,-54.5 8.26071,-22 16.43682,-42.925 18.16913,-46.5 4.70082,-9.70115 6.11548,-10.21688 26.64966,-9.71539 9.075,0.22163 17.70626,0.90025 19.18058,1.50804 1.73239,0.71417 3.45403,2.80336 4.86714,5.90621 6.60545,14.50397 53.95228,140.42448 53.95228,143.48793 0,0.44727 -7.35526,0.81321 -16.34501,0.81321 -14.3431,0 -16.54045,-0.21594 -17.94064,-1.76314 -0.87759,-0.96973 -4.78147,-9.85723 -8.67529,-19.75 -9.12489,-23.183 -10.32113,-25.24262 -16.51126,-28.42812 -4.40741,-2.26809 -6.16805,-2.55874 -15.5,-2.55874 -9.97095,0 -10.86282,0.17491 -16.86172,3.30676 -9.19636,4.80115 -14.50245,10.10556 -17.48767,17.48212 -4.91297,12.14008 -7.42193,19.2613 -8.09237,22.96869 -0.86974,4.80951 -3.24052,6.2876 -12.27759,7.6546 -7.86953,1.19039 -11.83086,1.20669 -20.59709,0.0847 z m 54.09446,-58.34818 c 2.57033,-2.57033 3.95783,-9.46996 2.81781,-14.01214 -0.99529,-3.96557 -5.45493,-8.50576 -9.56416,-9.73692 -4.80894,-1.44079 -8.49718,0.14526 -11.86044,5.10033 -4.21668,6.2124 -1.39526,15.39604 6.18953,20.14678 3.93179,2.46268 9.0773,1.84191 12.41726,-1.49805 z m 49.17424,0.59972 c 1.91404,-0.96165 4.54164,-3.32345 5.83912,-5.24845 5.99668,-8.89696 -2.22339,-22.94505 -10.82369,-18.49767 -8.42537,4.35693 -14.0282,21.04541 -8.20528,24.44008 2.69501,1.57115 9.38166,1.21934 13.18985,-0.69396 z m -25.95609,-6.26128 c 2.68388,-1.43637 8.98263,-13.1178 8.94188,-16.58327 -0.0188,-1.59714 -2.90434,-10.5539 -6.41235,-19.9039 -5.03772,-13.42721 -6.76027,-17 -8.1962,-17 -1.83268,0 -2.01841,0.42656 -10.99809,25.25898 l -2.62493,7.25898 3.08468,6.24102 c 5.64709,11.42542 8.86159,15.74102 11.72476,15.74102 1.42327,0 3.43938,-0.45577 4.48025,-1.01283 z m 115.23123,63.8954 c -7.01569,-2.02604 -7.82243,-4.26881 -37.34472,-103.81984 -12.04767,-40.62553 -12.77531,-43.5546 -11.24101,-45.25 1.42022,-1.56932 3.34852,-1.81273 14.36052,-1.81273 14.76091,0 18.68221,0.59373 19.9838,3.02577 0.87361,1.63236 15.89157,62.4088 21.60882,87.44914 3.20183,14.02332 4.984,16.32016 7.50937,9.67795 1.11783,-2.9401 8.28132,-30.12677 18.36626,-69.70314 3.63691,-14.27235 7.27301,-26.96222 8.08022,-28.19972 1.3929,-2.13541 2.10538,-2.25 13.99005,-2.25 15.39363,0 16.00794,0.41467 19.31448,13.03772 4.66586,17.81235 21.2857,78.71701 22.91187,83.96228 2.71866,8.76917 4.45117,7.85286 7.01719,-3.71134 2.43904,-10.99191 16.30023,-68.49404 19.46544,-80.75094 3.14195,-12.16685 3.73287,-12.53772 19.97705,-12.53772 9.04647,0 13.73202,0.38656 14.54546,1.2 2.98835,2.98836 1.43612,8.79732 -27.33594,102.3 -6.7697,22 -12.74666,41.1435 -13.28213,42.5411 -1.72388,4.49942 -3.66435,5.26408 -14.59203,5.75008 -11.90865,0.52964 -16.43633,-0.56832 -18.79261,-4.55719 -1.53968,-2.60646 -7.78368,-23.27768 -20.88801,-69.15122 -5.35579,-18.74869 -7.25557,-23.21581 -9.05472,-21.29113 -0.36419,0.3896 -5.23678,16.90836 -10.82799,36.70836 -12.7816,45.26315 -14.91076,52.13708 -16.91205,54.59996 -2.62904,3.2354 -19.30801,4.96333 -26.85932,2.78261 z m 118.2448,-178.47753 c -41.00348,-3.09067 -76.63195,-11.26288 -108.5,-24.88696 -23.41948,-10.01218 -51.69367,-26.77919 -71,-42.10403 -12.28366,-9.75044 -41.2848,-39.17833 -50.66846,-51.41405 -25.18909,-32.84504 -41.23168,-64.89462 -51.818,-103.52102 -7.12332,-25.99092 -10.31075,-47.50353 -11.1834,-75.47898 -0.9306,-29.83366 1.74428,-55.052 8.85675,-83.5 21.53723,-86.1431 81.7682,-159.9204 163.30119,-200.02866 77.18169,-37.967739 165.40739,-41.155272 247.52406,-8.94288 40.00534,15.69314 84.24794,46.42859 112.59264,78.21848 51.2389,57.46676 77.405,123.90379 80.0508,203.25306 2.7821,83.43572 -33.0743,168.08101 -95.6033,225.68789 -56.7944,52.32373 -126.05958,80.73043 -201.55228,82.65961 -9.35,0.23893 -19.25,0.26483 -22,0.0575 z m 32.5,-18.4579 c 27.07361,-1.92891 50.12715,-6.35993 72.79174,-13.99098 17.88434,-6.02156 18.68672,-6.73774 17.87663,-15.95616 -0.83589,-9.51194 -3.72208,-19.37104 -12.1258,-41.42125 -9.31571,-24.44313 -12.41147,-35.51623 -13.20984,-47.2498 -0.78064,-11.47306 0.3367,-17.33079 6.90702,-36.21058 4.87375,-14.00473 5.09093,-15.08012 5.17378,-25.61837 0.082,-10.43037 -0.0689,-11.2807 -2.91353,-16.42057 -3.76557,-6.80385 -8.74403,-10.45592 -22.77195,-16.70489 -6.0184,-2.68099 -12.89401,-6.57804 -15.27915,-8.6601 -6.25175,-5.45736 -9.69882,-13.1001 -10.18223,-22.57576 -0.55679,-10.91423 1.00286,-13.53964 10.95718,-18.44452 6.88886,-3.39441 8.13208,-4.45804 11.5,-9.83878 5.52331,-8.82427 10.72451,-15.33284 14.63889,-18.31848 4.63853,-3.53798 25.33831,-12.5369 28.83803,-12.5369 5.45934,0 6.79923,-2.79265 6.79923,-14.17126 0,-8.06114 0.34334,-10.55064 1.65499,-12 3.93747,-4.35085 8.4502,-1.04525 13.50267,9.89081 2.94094,6.36565 4.31013,8.33707 5.61575,8.08581 0.99928,-0.19231 3.83277,-4.27838 6.72657,-9.70015 2.75,-5.15234 5.9418,-9.99169 7.0928,-10.75413 1.8525,-1.2271 2.4149,-1.13287 4.8986,0.82084 4.5706,3.59517 8.3356,13.73132 15.1494,40.78473 9.4726,37.6101 10.3915,42.2205 11.4021,57.20817 1.4657,21.73597 5.8939,30.0743 23.633,44.50104 23.4378,19.06129 25.9691,21.6523 36.4717,37.33196 2.3938,3.5738 5.0519,6.62734 5.9068,6.78566 1.1147,0.2064 3.7246,-4.17823 9.225,-15.49782 14.6756,-30.20151 21.1449,-51.5963 26.847,-88.78566 1.6218,-10.57755 1.6103,-52.80595 -0.018,-67.5 -6.4079,-57.81174 -27.0662,-107.14867 -64.4828,-154 -7.8307,-9.80527 -29.8683,-31.68821 -40.6252,-40.3401 -41.14559,-33.09393 -92.96714,-55.02004 -147.16314,-62.2659 -14.88838,-1.99054 -52.42542,-2.24308 -67.33685,-0.45303 -64.18695,7.70536 -122.17353,35.44025 -168.3714,80.53179 -51.04022,49.81793 -78.9158,108.53789 -86.10637,181.3832 -2.79627,28.32822 0.18014,66.09943 7.49914,95.16526 3.97025,15.76702 15.22666,47.05206 17.92548,49.82048 1.08583,1.11383 2.97698,-0.75436 11.13518,-11 5.40497,-6.78793 18.08065,-21.45827 28.16819,-32.60074 26.71288,-29.50648 34.22162,-39.18995 40.70443,-52.49357 7.5633,-15.52094 13.75322,-31.3418 17.54482,-44.84299 1.76152,-6.27242 3.51062,-11.73527 3.88691,-12.13966 0.37628,-0.4044 5.12821,3.30208 10.55984,8.23663 21.97745,19.96614 40.38179,28.85074 51.89377,25.05144 10.36916,-3.42213 16.79905,-21.82404 15.21797,-43.55281 -0.76126,-10.46204 -6.0365,-38.37853 -7.53544,-39.87748 -2.42366,-2.42366 -2.822,1.21093 -1.30174,11.87748 2.27841,15.98598 2.28452,42.36641 0.0115,49.71483 -3.8361,12.40171 -9.89758,14.35559 -23.73229,7.64995 -21.50891,-10.4253 -42.95181,-32.55538 -42.99023,-44.36796 -0.0121,-3.71483 3.13512,-14.9233 5.49013,-19.55255 5.06253,-9.95147 20.12077,-26.45909 30.90294,-33.87742 7.51368,-5.16955 18.93336,-10.00601 28.90485,-12.24179 13.149,-2.94822 33.01023,-2.95891 44.91908,-0.0242 16.76185,4.13069 29.58975,12.75493 35.52934,23.88652 3.7248,6.98078 7.37535,10.62438 12.74389,12.71967 5.2258,2.03957 21.94315,5.90657 37,8.55869 13.85137,2.4398 16.48172,3.32143 19.50229,6.53667 1.85369,1.97316 2.09228,3.02267 1.51626,6.6696 -2.03549,12.88732 -9.13152,29.753 -16.58057,39.40836 -11.42713,14.81167 -30.87138,23.86549 -56.4441,26.28204 -12.8837,1.21747 -17.30421,3.05545 -23.4061,9.73189 -7.42311,8.12207 -9.50825,15.29296 -8.81194,30.30472 0.44475,9.58863 1.49511,15.41711 6.05524,33.60095 8.26528,32.95841 9.00174,37.67049 8.36165,53.5 -0.75901,18.77021 -4.93413,34.8009 -16.09496,61.79771 -2.56883,6.21374 -5.75288,15.43874 -7.07565,20.5 -4.63703,17.74249 -7.29313,44.43923 -5.95152,59.81923 1.03675,11.88503 1.58199,12.3134 18.9294,14.87183 12.53079,1.84807 31.00337,3.48627 43.5,3.8577 2.475,0.0736 11.025,-0.33113 19,-0.89933 z m -256,-368.65336 c -6.44021,-2.35426 -8.22035,-10.84094 -3.25,-15.4941 1.5125,-1.41597 10.85,-7.4222 20.75,-13.34716 16.25258,-9.72687 37.8434,-23.10579 121.5,-75.28849 31.15851,-19.43583 64.49985,-40.60721 81.92783,-52.02327 6.8353,-4.47742 13.37258,-8.14076 14.52729,-8.14076 1.1547,0 7.34616,3.2625 13.75881,7.25 6.41264,3.9875 19.00036,11.71379 27.97271,17.16954 8.97234,5.45574 26.43836,16.31398 38.81336,24.12941 21.91013,13.83735 61.05163,38.14292 126.77648,78.72394 34.5974,21.36179 36.0375,22.57458 34.778,29.28831 -0.6311,3.364 -5.4818,8.4388 -8.0661,8.4388 -3.0532,0 -8.2548,-3.06031 -47.2596,-27.80505 -22.4008,-14.21113 -45.00378,-28.4648 -50.22878,-31.67484 -5.225,-3.21003 -30.2,-18.73743 -55.5,-34.50532 -53.0396,-33.05622 -79.01736,-49.01479 -79.78753,-49.01479 -0.88267,0 -37.69922,22.91676 -205.95245,128.19674 -23.58635,14.75853 -25.9665,15.84933 -30.76002,14.09704 z"
       id="path1" />
  </g>
</svg>
