<?xml version="1.0" standalone="no"?>
<!DOCTYPE svg PUBLIC "-//W3C//DTD SVG 20010904//EN"
 "http://www.w3.org/TR/2001/REC-SVG-20010904/DTD/svg10.dtd">
<svg version="1.0" xmlns="http://www.w3.org/2000/svg"
 width="1024.000000pt" height="1024.000000pt" viewBox="0 0 1024.000000 1024.000000"
 preserveAspectRatio="xMidYMid meet">

<g transform="translate(0.000000,1024.000000) scale(0.100000,-0.100000)"
fill="#000000" stroke="none">
<path d="M4895 9299 c-480 -36 -955 -191 -1366 -445 -1164 -720 -1703 -2043
-1374 -3372 144 -583 411 -1034 871 -1472 360 -345 868 -617 1373 -736 480
-114 940 -119 1401 -17 708 156 1349 569 1786 1150 521 693 709 1521 543 2402
-157 837 -656 1569 -1379 2026 -539 340 -1224 511 -1855 464z m465 -184 c251
-15 582 -94 844 -201 661 -271 1180 -752 1502 -1394 157 -314 241 -604 285
-985 16 -138 16 -552 0 -665 -49 -350 -121 -588 -268 -892 -55 -115 -81 -158
-92 -156 -9 2 -41 41 -73 88 -82 123 -133 176 -270 286 -237 190 -294 270
-309 436 -21 227 -33 291 -108 589 -83 333 -115 424 -164 465 -26 22 -32 23
-50 11 -11 -7 -44 -56 -73 -108 -29 -52 -59 -95 -68 -97 -11 -2 -27 21 -54 81
-51 108 -91 139 -134 100 -15 -14 -18 -32 -18 -120 0 -115 -13 -143 -68 -143
-37 0 -247 -92 -292 -128 -36 -29 -103 -115 -153 -196 -23 -37 -42 -52 -105
-83 -99 -49 -115 -76 -109 -183 8 -156 70 -233 253 -313 140 -62 191 -99 229
-168 28 -51 30 -60 29 -164 0 -106 -2 -116 -51 -255 -66 -186 -77 -247 -70
-363 8 -119 39 -230 132 -472 82 -215 111 -313 121 -411 10 -97 4 -103 -178
-162 -84 -28 -182 -57 -218 -66 -379 -90 -787 -103 -1180 -38 -147 24 -145 21
-143 250 2 276 39 477 128 692 114 275 154 432 162 625 6 161 3 184 -84 530
-91 366 -85 516 27 638 62 68 106 87 233 98 197 17 377 83 489 180 107 93 202
272 236 441 15 78 15 78 -7 102 -31 33 -57 42 -196 66 -142 25 -302 62 -365
85 -56 20 -95 56 -127 118 -74 146 -239 240 -469 267 -220 26 -466 -28 -631
-141 -68 -47 -186 -163 -244 -240 -88 -120 -134 -258 -111 -336 49 -164 389
-438 543 -438 59 0 81 19 111 94 20 51 22 72 21 241 -1 102 -7 229 -15 283
-14 97 -10 133 12 111 14 -14 66 -288 75 -394 7 -96 -5 -219 -32 -300 -23 -72
-83 -135 -138 -146 -120 -22 -302 73 -514 268 -46 43 -87 76 -91 73 -4 -3 -17
-40 -29 -83 -43 -162 -119 -359 -196 -512 -56 -112 -155 -236 -410 -515 -75
-82 -188 -214 -252 -292 -63 -79 -116 -143 -119 -143 -14 0 -98 210 -153 383
-36 113 -84 345 -103 497 -19 156 -16 545 5 700 81 579 288 1055 645 1480 91
109 294 308 397 391 250 201 560 376 857 483 160 58 272 87 468 121 221 39
433 48 730 30z"/>
<path d="M4970 8619 c-150 -98 -710 -453 -1010 -639 -118 -73 -368 -229 -555
-345 -187 -116 -412 -255 -500 -308 -88 -53 -171 -107 -185 -122 -35 -38 -32
-91 9 -127 39 -35 74 -36 135 -3 26 14 391 240 809 502 1232 771 1449 904
1461 900 15 -6 392 -238 806 -497 179 -111 412 -256 518 -322 106 -66 361
-227 567 -358 206 -131 389 -241 406 -245 23 -5 38 -2 58 12 43 32 56 65 46
110 -12 46 22 23 -642 433 -263 162 -617 382 -788 489 -170 107 -407 254 -525
327 -118 73 -264 163 -325 200 -60 38 -121 70 -135 72 -18 2 -59 -19 -150 -79z"/>
<path d="M2415 2901 c-53 -23 -54 -27 -296 -669 -105 -279 -203 -536 -219
-572 -16 -36 -36 -96 -44 -133 -9 -38 -21 -78 -27 -89 -15 -29 -3 -34 97 -42
115 -10 240 9 271 40 13 13 23 34 23 47 0 39 88 258 118 296 38 46 109 95 180
121 78 30 209 24 280 -12 59 -30 72 -54 163 -284 38 -98 76 -186 86 -196 14
-16 34 -18 183 -18 l167 0 -42 123 c-53 154 -465 1232 -500 1310 -15 31 -36
62 -48 69 -27 14 -362 22 -392 9z m271 -499 c35 -95 64 -182 64 -193 0 -37
-63 -150 -92 -165 -60 -31 -84 -9 -160 143 l-31 63 58 157 c31 87 59 162 62
166 17 28 40 -12 99 -171z m-289 -198 c61 -40 82 -138 43 -202 -48 -79 -150
-59 -200 39 -26 50 -25 88 3 130 40 60 96 72 154 33z m568 -14 c40 -41 46
-112 13 -159 -30 -44 -82 -71 -135 -71 -71 0 -96 47 -69 126 20 60 61 113 99
129 38 16 58 10 92 -25z"/>
<path d="M3327 2893 c-16 -18 -13 -33 67 -304 283 -959 336 -1119 382 -1166
29 -29 101 -38 202 -26 59 7 90 16 103 29 12 13 62 174 146 467 105 368 130
447 144 447 10 0 20 -8 23 -17 3 -10 28 -97 55 -193 98 -347 193 -666 207
-692 20 -39 69 -51 190 -46 109 5 129 13 146 58 29 75 401 1298 417 1372 8 34
7 48 -5 66 -14 21 -21 22 -145 22 -74 0 -139 -5 -151 -11 -11 -6 -26 -26 -34
-44 -13 -32 -113 -435 -195 -790 -40 -171 -50 -198 -69 -179 -9 9 -134 454
-230 819 -55 210 -50 205 -215 205 -120 0 -125 -1 -140 -23 -8 -13 -38 -114
-66 -223 -88 -350 -188 -731 -198 -757 -24 -62 -44 -40 -70 78 -18 83 -65 278
-172 717 -22 92 -47 175 -54 185 -12 16 -32 18 -167 21 -140 3 -155 2 -171
-15z"/>
<path d="M5657 2892 c-16 -17 -17 -82 -17 -730 l0 -711 24 -28 24 -28 131 0
c187 0 177 -16 173 265 l-4 220 119 0 119 0 38 -77 c72 -148 227 -402 250
-410 11 -4 81 -7 154 -7 123 1 135 2 155 23 l22 22 -42 82 c-24 45 -74 136
-112 203 -70 122 -141 254 -141 261 0 2 30 23 68 47 71 45 150 123 175 172 38
75 49 245 22 349 -40 152 -117 258 -223 307 -118 54 -154 58 -553 58 -342 0
-367 -1 -382 -18z m697 -294 c91 -23 149 -137 128 -251 -13 -68 -46 -117 -95
-141 -29 -13 -69 -16 -221 -16 l-187 0 5 205 c3 113 7 209 10 213 7 12 310 3
360 -10z"/>
<path d="M7603 2903 c-30 -6 -34 -12 -96 -163 -53 -128 -463 -1268 -467 -1300
-5 -32 1 -40 42 -51 54 -14 293 -3 307 15 6 7 24 53 40 102 51 157 65 182 103
189 18 3 143 5 277 3 l244 -3 56 -140 c31 -77 60 -146 64 -153 19 -28 249 -11
333 24 l33 14 -18 32 c-11 18 -103 256 -206 528 -281 741 -333 873 -356 893
-18 15 -42 17 -178 16 -86 -1 -166 -4 -178 -6z m212 -440 c14 -49 53 -166 86
-261 33 -95 59 -180 57 -190 -3 -15 -21 -17 -168 -20 -122 -2 -170 1 -182 10
-14 12 -8 37 68 268 47 140 86 261 89 268 10 29 25 6 50 -75z"/>
<path d="M3785 1104 c-13 -13 -14 -19 -4 -25 16 -9 39 7 39 27 0 19 -15 18
-35 -2z"/>
<path d="M2692 1060 c-67 -16 -107 -76 -100 -152 9 -90 75 -140 154 -119 22 6
47 16 57 23 16 12 16 15 2 36 -15 20 -18 21 -38 7 -31 -22 -80 -19 -103 6 -29
32 -26 105 5 130 28 23 69 24 99 3 22 -15 24 -15 37 2 20 26 19 32 -12 47 -42
22 -65 25 -101 17z"/>
<path d="M3185 1063 c-60 -16 -95 -67 -95 -140 0 -94 66 -153 151 -134 23 5
49 16 57 25 14 14 14 17 -3 36 -16 18 -20 19 -35 5 -17 -16 -67 -20 -86 -7
-37 24 -44 96 -13 136 23 30 72 35 104 12 17 -12 21 -12 33 5 11 16 11 23 2
34 -11 13 -76 37 -90 34 -3 -1 -14 -4 -25 -6z"/>
<path d="M5977 1060 c-40 -12 -58 -29 -79 -78 -24 -53 -17 -110 18 -152 32
-37 85 -55 123 -42 15 5 40 8 54 5 l26 -5 -3 73 -3 74 -52 3 c-50 3 -52 2 -49
-20 2 -17 10 -23 28 -24 43 -1 17 -54 -27 -54 -36 0 -60 16 -71 49 -13 36 -6
69 21 99 24 26 78 30 98 6 12 -14 14 -14 26 2 18 24 17 31 -9 48 -32 19 -68
25 -101 16z"/>
<path d="M6369 1060 c-65 -19 -99 -64 -99 -133 0 -83 47 -137 119 -137 84 1
131 49 131 135 0 93 -73 158 -151 135z m76 -75 c31 -30 33 -82 4 -119 -44 -56
-129 -18 -129 59 0 75 75 111 125 60z"/>
<path d="M8362 1054 c-20 -8 -34 -22 -38 -40 -11 -45 7 -77 61 -106 32 -17 50
-34 50 -45 0 -24 -39 -29 -69 -9 -22 14 -25 13 -40 -3 -15 -16 -15 -19 1 -34
48 -43 109 -43 143 0 39 50 15 104 -60 138 -26 12 -40 24 -38 34 4 21 42 26
61 7 13 -13 17 -13 33 5 16 17 16 21 3 34 -25 26 -72 34 -107 19z"/>
<path d="M1843 925 l-50 -135 28 0 c21 0 29 7 38 30 9 27 14 30 55 30 40 0 45
-3 55 -30 8 -24 16 -30 39 -30 l28 0 -45 135 c-43 127 -48 135 -72 135 -24 0
-29 -9 -76 -135z m97 -12 c0 -7 -12 -13 -26 -13 -20 0 -25 4 -20 16 3 9 9 28
13 42 l6 27 13 -30 c7 -16 13 -36 14 -42z"/>
<path d="M2078 925 l-3 -135 28 0 c25 0 27 3 27 45 0 45 0 45 34 45 22 0 45 9
63 24 23 20 28 32 27 67 -2 63 -36 89 -114 89 l-59 0 -3 -135z m122 66 c5 -11
10 -22 10 -25 0 -13 -34 -36 -55 -36 -19 0 -24 6 -27 35 -5 42 -3 45 33 45 18
0 32 -7 39 -19z"/>
<path d="M2300 925 l0 -135 75 0 c73 0 75 1 75 25 0 23 -3 25 -50 25 l-50 0 0
110 0 110 -25 0 -25 0 0 -135z"/>
<path d="M2490 925 l0 -135 25 0 25 0 0 135 0 135 -25 0 -25 0 0 -135z"/>
<path d="M2892 943 c-22 -65 -44 -126 -47 -135 -6 -15 -2 -18 20 -18 21 0 29
7 38 30 10 27 16 30 55 30 39 0 44 -3 53 -30 9 -24 17 -30 40 -30 l28 0 -46
135 c-45 128 -48 135 -74 135 -25 0 -29 -7 -67 -117z m85 -3 l10 -40 -29 0
c-25 0 -29 3 -23 18 4 9 10 27 12 40 8 33 18 27 30 -18z"/>
<path d="M3353 925 l-2 -135 30 0 29 0 0 135 0 135 -28 0 -28 0 -1 -135z"/>
<path d="M3484 1025 c-84 -89 -31 -238 85 -238 52 0 85 23 112 75 29 57 20
119 -26 165 -29 29 -39 33 -85 33 -47 0 -56 -4 -86 -35z m136 -35 c29 -29 28
-102 -2 -130 -41 -38 -99 -22 -117 33 -13 39 -1 83 26 105 25 18 70 15 93 -8z"/>
<path d="M3748 1049 c-16 -9 -18 -26 -18 -134 l0 -125 25 0 c25 0 25 1 25 85
0 47 3 85 8 85 4 0 29 -38 56 -85 39 -69 53 -85 72 -85 l24 0 0 135 0 135 -25
0 c-24 0 -25 -2 -25 -70 0 -40 -4 -70 -10 -70 -5 0 -10 4 -10 8 0 16 -83 132
-94 132 -6 0 -19 -5 -28 -11z"/>
<path d="M4078 1055 c-4 -5 38 -183 58 -247 3 -12 15 -18 33 -18 26 0 29 5 41
58 20 86 24 88 44 12 16 -65 20 -70 45 -70 27 0 28 3 59 124 18 68 32 126 32
129 0 2 -11 7 -25 9 -23 5 -25 1 -40 -63 -8 -37 -15 -75 -15 -83 0 -9 -4 -16
-9 -16 -5 0 -18 37 -28 83 -16 69 -22 82 -38 82 -17 0 -23 -14 -40 -82 -11
-45 -23 -84 -26 -88 -4 -3 -12 25 -19 62 -17 92 -26 113 -48 113 -10 0 -21 -2
-24 -5z"/>
<path d="M4440 1058 c0 -2 -1 -63 -3 -136 l-2 -132 73 0 c70 0 72 1 72 25 0
23 -4 25 -45 25 -43 0 -45 1 -45 30 0 28 2 30 40 30 36 0 40 3 40 25 0 23 -4
25 -40 25 -38 0 -40 2 -40 30 0 29 2 30 45 30 41 0 45 2 45 25 0 24 -2 25 -70
25 -38 0 -70 -1 -70 -2z"/>
<path d="M4650 925 l0 -135 65 0 c57 0 69 3 90 25 29 28 32 61 10 93 -12 16
-13 27 -5 41 16 32 12 60 -15 86 -20 21 -34 25 -85 25 l-60 0 0 -135z m119 61
c4 -22 -23 -46 -51 -46 -14 0 -18 8 -18 36 0 34 1 35 32 32 23 -2 34 -9 37
-22z m-1 -98 c19 -19 -4 -48 -38 -48 -27 0 -30 3 -30 30 0 26 4 30 28 30 15 0
33 -5 40 -12z"/>
<path d="M4980 925 l0 -135 25 0 c23 0 25 3 25 50 0 38 4 50 15 50 8 0 26 -22
40 -50 22 -43 29 -50 55 -50 l30 0 -26 51 -25 51 21 23 c33 35 31 91 -4 121
-22 20 -38 24 -92 24 l-64 0 0 -135z m130 66 c13 -26 -11 -51 -51 -51 -27 0
-29 3 -29 35 0 33 2 35 35 35 24 0 37 -6 45 -19z"/>
<path d="M5220 925 l0 -135 75 0 c73 0 75 1 75 25 0 23 -4 25 -43 25 -52 0
-56 3 -49 35 4 22 10 25 43 25 35 0 39 3 39 25 0 23 -4 25 -40 25 -38 0 -40 2
-40 30 0 29 2 30 45 30 41 0 45 2 45 25 0 24 -2 25 -75 25 l-75 0 0 -135z"/>
<path d="M5440 925 l0 -135 25 0 c24 0 25 3 25 55 l0 55 45 0 c41 0 45 2 45
25 0 23 -4 25 -45 25 -43 0 -45 1 -45 30 l0 30 60 0 c57 0 60 1 60 25 0 25 -1
25 -85 25 l-85 0 0 -135z"/>
<path d="M5660 952 c0 -82 4 -113 16 -130 23 -33 60 -45 100 -32 55 19 64 41
64 162 l0 108 -25 0 c-25 0 -25 0 -25 -98 0 -104 -7 -122 -46 -122 -30 0 -34
16 -34 126 0 94 0 94 -25 94 l-25 0 0 -108z"/>
<path d="M6170 925 l0 -135 25 0 25 0 0 135 0 135 -25 0 -25 0 0 -135z"/>
<path d="M6735 1048 c-63 -177 -85 -241 -85 -249 0 -5 11 -9 24 -9 18 0 27 8
35 30 9 27 14 30 55 30 40 0 45 -3 55 -30 7 -23 16 -30 35 -30 15 0 26 6 25
13 0 6 -19 66 -43 132 -39 109 -45 120 -70 123 -15 2 -28 -2 -31 -10z m55
-135 c0 -7 -11 -13 -25 -13 -28 0 -30 4 -13 51 l12 34 12 -30 c7 -17 13 -36
14 -42z"/>
<path d="M6948 1049 c-16 -9 -18 -26 -18 -134 l0 -125 25 0 c24 0 24 2 27 93
l3 92 53 -92 c42 -73 58 -93 76 -93 21 0 22 2 19 133 l-3 132 -26 3 -27 4 7
-71 c6 -73 -2 -90 -22 -46 -17 38 -75 114 -87 114 -5 0 -18 -4 -27 -10z"/>
<path d="M7200 925 l0 -135 25 0 25 0 0 135 0 135 -25 0 -25 0 0 -135z"/>
<path d="M7327 1053 c-4 -3 -7 -64 -7 -135 l0 -128 25 0 c25 0 25 1 25 83 l1
82 35 -68 c19 -38 40 -67 47 -65 7 2 26 33 44 68 l32 65 0 -82 1 -83 28 0 27
0 -3 122 c-2 100 -6 125 -19 136 -35 26 -50 14 -79 -63 -27 -69 -44 -93 -44
-62 0 6 -13 40 -30 75 -24 50 -34 62 -53 62 -13 0 -27 -3 -30 -7z"/>
<path d="M7715 1048 c-2 -7 -24 -68 -48 -135 l-44 -123 27 0 c22 0 30 6 39 30
9 27 14 30 55 30 40 0 45 -3 55 -30 7 -23 16 -30 35 -30 15 0 26 3 26 8 -1 4
-20 63 -44 132 -40 115 -45 125 -70 128 -15 2 -28 -2 -31 -10z m49 -120 c6
-25 4 -28 -19 -28 -28 0 -29 4 -14 50 13 35 21 29 33 -22z"/>
<path d="M7910 925 l0 -135 75 0 c73 0 75 1 75 25 0 23 -3 25 -50 25 l-50 0 0
110 0 110 -25 0 -25 0 0 -135z"/>
<path d="M8120 925 l0 -135 75 0 c73 0 75 1 75 25 0 23 -3 25 -50 25 -49 0
-50 1 -50 29 0 28 3 30 43 33 35 2 43 7 45 26 3 20 -1 22 -42 22 -44 0 -46 1
-46 30 0 29 1 30 51 30 47 0 50 2 47 23 -3 20 -9 22 -75 25 l-73 3 0 -136z"/>
</g>
</svg>
