<?xml version="1.0" encoding="UTF-8"?>
<svg id="Capa_1" xmlns="http://www.w3.org/2000/svg" xmlns:xlink="http://www.w3.org/1999/xlink" version="1.1" viewBox="0 0 674.6 212.6">
  <!-- Generator: Adobe Illustrator 29.0.0, SVG Export Plug-In . SVG Version: 2.1.0 Build 186)  -->
  <defs>
    <style>
      .st0 {
        stroke: url(#Degradado_sin_nombre_2);
      }

      .st0, .st1, .st2, .st3, .st4, .st5, .st6, .st7, .st8, .st9, .st10, .st11, .st12, .st13, .st14, .st15, .st16, .st17, .st18, .st19, .st20, .st21, .st22, .st23, .st24, .st25, .st26, .st27, .st28, .st29, .st30, .st31, .st32 {
        fill: #fff;
      }

      .st1 {
        stroke: url(#Degradado_sin_nombre_23);
      }

      .st2 {
        stroke: url(#Degradado_sin_nombre_29);
      }

      .st3 {
        stroke: url(#Degradado_sin_nombre_22);
      }

      .st4 {
        stroke: url(#Degradado_sin_nombre_25);
      }

      .st5 {
        stroke: url(#Degradado_sin_nombre_24);
      }

      .st6 {
        stroke: url(#Degradado_sin_nombre_27);
      }

      .st7 {
        stroke: url(#Degradado_sin_nombre_28);
      }

      .st8 {
        stroke: url(#Degradado_sin_nombre_26);
      }

      .st9 {
        stroke: url(#Degradado_sin_nombre_21);
      }

      .st10 {
        stroke: url(#Degradado_sin_nombre_224);
      }

      .st11 {
        stroke: url(#Degradado_sin_nombre_219);
      }

      .st12 {
        stroke: url(#Degradado_sin_nombre_210);
      }

      .st13 {
        stroke: url(#Degradado_sin_nombre_217);
      }

      .st14 {
        stroke: url(#Degradado_sin_nombre_218);
      }

      .st15 {
        stroke: url(#Degradado_sin_nombre_215);
      }

      .st16 {
        stroke: url(#Degradado_sin_nombre_216);
      }

      .st17 {
        stroke: url(#Degradado_sin_nombre_221);
      }

      .st18 {
        stroke: url(#Degradado_sin_nombre_223);
      }

      .st19 {
        stroke: url(#Degradado_sin_nombre_222);
      }

      .st20 {
        stroke: url(#Degradado_sin_nombre_211);
      }

      .st21 {
        stroke: url(#Degradado_sin_nombre_213);
      }

      .st22 {
        stroke: url(#Degradado_sin_nombre_212);
      }

      .st23 {
        stroke: url(#Degradado_sin_nombre_214);
      }

      .st24 {
        stroke: url(#Degradado_sin_nombre_220);
      }

      .st25 {
        stroke: url(#Degradado_sin_nombre_229);
      }

      .st26 {
        stroke: url(#Degradado_sin_nombre_227);
      }

      .st27 {
        stroke: url(#Degradado_sin_nombre_228);
      }

      .st28 {
        stroke: url(#Degradado_sin_nombre_225);
      }

      .st29 {
        stroke: url(#Degradado_sin_nombre_226);
      }

      .st30 {
        stroke: url(#Degradado_sin_nombre_230);
      }

      .st31 {
        stroke: url(#Degradado_sin_nombre_232);
      }

      .st32 {
        stroke: url(#Degradado_sin_nombre_231);
      }
    </style>
    <linearGradient id="Degradado_sin_nombre_2" data-name="Degradado sin nombre 2" x1="2.6" y1="76.1" x2="161.1" y2="76.1" gradientUnits="userSpaceOnUse">
      <stop offset="0" stop-color="#fff"/>
      <stop offset="1" stop-color="#000"/>
    </linearGradient>
    <linearGradient id="Degradado_sin_nombre_21" data-name="Degradado sin nombre 2" x1="152.1" y1="76" x2="362.6" y2="76" xlink:href="#Degradado_sin_nombre_2"/>
    <linearGradient id="Degradado_sin_nombre_22" data-name="Degradado sin nombre 2" x1="384.2" y1="76.2" x2="505.8" y2="76.2" xlink:href="#Degradado_sin_nombre_2"/>
    <linearGradient id="Degradado_sin_nombre_23" data-name="Degradado sin nombre 2" x1="524.1" y1="76.4" x2="675.3" y2="76.4" xlink:href="#Degradado_sin_nombre_2"/>
    <linearGradient id="Degradado_sin_nombre_24" data-name="Degradado sin nombre 2" x1="197.6" y1="181.2" x2="203.2" y2="181.2" xlink:href="#Degradado_sin_nombre_2"/>
    <linearGradient id="Degradado_sin_nombre_25" data-name="Degradado sin nombre 2" x1="79.3" y1="198.6" x2="103" y2="198.6" xlink:href="#Degradado_sin_nombre_2"/>
    <linearGradient id="Degradado_sin_nombre_26" data-name="Degradado sin nombre 2" x1="129.2" y1="198.2" x2="152" y2="198.2" xlink:href="#Degradado_sin_nombre_2"/>
    <linearGradient id="Degradado_sin_nombre_27" data-name="Degradado sin nombre 2" x1="408.6" y1="198.6" x2="433.1" y2="198.6" xlink:href="#Degradado_sin_nombre_2"/>
    <linearGradient id="Degradado_sin_nombre_28" data-name="Degradado sin nombre 2" x1="447.2" y1="198.3" x2="473.2" y2="198.3" xlink:href="#Degradado_sin_nombre_2"/>
    <linearGradient id="Degradado_sin_nombre_29" data-name="Degradado sin nombre 2" x1="651.7" y1="198.7" x2="670" y2="198.7" xlink:href="#Degradado_sin_nombre_2"/>
    <linearGradient id="Degradado_sin_nombre_210" data-name="Degradado sin nombre 2" x1="-.7" y1="198.5" x2="25" y2="198.5" xlink:href="#Degradado_sin_nombre_2"/>
    <linearGradient id="Degradado_sin_nombre_211" data-name="Degradado sin nombre 2" x1="27.7" y1="198.5" x2="46.6" y2="198.5" xlink:href="#Degradado_sin_nombre_2"/>
    <linearGradient id="Degradado_sin_nombre_212" data-name="Degradado sin nombre 2" x1="50.2" y1="198.5" x2="66.2" y2="198.5" xlink:href="#Degradado_sin_nombre_2"/>
    <linearGradient id="Degradado_sin_nombre_213" data-name="Degradado sin nombre 2" x1="69.2" y1="198.5" x2="75.2" y2="198.5" xlink:href="#Degradado_sin_nombre_2"/>
    <linearGradient id="Degradado_sin_nombre_214" data-name="Degradado sin nombre 2" x1="104.4" y1="198.5" x2="129.3" y2="198.5" xlink:href="#Degradado_sin_nombre_2"/>
    <linearGradient id="Degradado_sin_nombre_215" data-name="Degradado sin nombre 2" x1="155.3" y1="198.5" x2="162.2" y2="198.5" xlink:href="#Degradado_sin_nombre_2"/>
    <linearGradient id="Degradado_sin_nombre_216" data-name="Degradado sin nombre 2" x1="164.5" y1="198.6" x2="191" y2="198.6" xlink:href="#Degradado_sin_nombre_2"/>
    <linearGradient id="Degradado_sin_nombre_217" data-name="Degradado sin nombre 2" x1="193.2" y1="198.5" x2="215.2" y2="198.5" xlink:href="#Degradado_sin_nombre_2"/>
    <linearGradient id="Degradado_sin_nombre_218" data-name="Degradado sin nombre 2" x1="228" y1="198.5" x2="260.2" y2="198.5" xlink:href="#Degradado_sin_nombre_2"/>
    <linearGradient id="Degradado_sin_nombre_219" data-name="Degradado sin nombre 2" x1="263.7" y1="198.5" x2="279.2" y2="198.5" xlink:href="#Degradado_sin_nombre_2"/>
    <linearGradient id="Degradado_sin_nombre_220" data-name="Degradado sin nombre 2" x1="285.2" y1="198.5" x2="304.1" y2="198.5" xlink:href="#Degradado_sin_nombre_2"/>
    <linearGradient id="Degradado_sin_nombre_221" data-name="Degradado sin nombre 2" x1="318.2" y1="198.5" x2="338.5" y2="198.5" xlink:href="#Degradado_sin_nombre_2"/>
    <linearGradient id="Degradado_sin_nombre_222" data-name="Degradado sin nombre 2" x1="342.2" y1="198.5" x2="358.2" y2="198.5" xlink:href="#Degradado_sin_nombre_2"/>
    <linearGradient id="Degradado_sin_nombre_223" data-name="Degradado sin nombre 2" x1="364.2" y1="198.5" x2="382.2" y2="198.5" xlink:href="#Degradado_sin_nombre_2"/>
    <linearGradient id="Degradado_sin_nombre_224" data-name="Degradado sin nombre 2" x1="386.2" y1="198.7" x2="405.2" y2="198.7" xlink:href="#Degradado_sin_nombre_2"/>
    <linearGradient id="Degradado_sin_nombre_225" data-name="Degradado sin nombre 2" x1="437.2" y1="198.5" x2="443.2" y2="198.5" xlink:href="#Degradado_sin_nombre_2"/>
    <linearGradient id="Degradado_sin_nombre_226" data-name="Degradado sin nombre 2" x1="485.2" y1="198.6" x2="509.1" y2="198.6" xlink:href="#Degradado_sin_nombre_2"/>
    <linearGradient id="Degradado_sin_nombre_227" data-name="Degradado sin nombre 2" x1="513.2" y1="198.4" x2="534.6" y2="198.4" xlink:href="#Degradado_sin_nombre_2"/>
    <linearGradient id="Degradado_sin_nombre_228" data-name="Degradado sin nombre 2" x1="540.2" y1="198.5" x2="546.2" y2="198.5" xlink:href="#Degradado_sin_nombre_2"/>
    <linearGradient id="Degradado_sin_nombre_229" data-name="Degradado sin nombre 2" x1="552.2" y1="198.5" x2="579.7" y2="198.5" xlink:href="#Degradado_sin_nombre_2"/>
    <linearGradient id="Degradado_sin_nombre_230" data-name="Degradado sin nombre 2" x1="582.3" y1="198.6" x2="607.2" y2="198.6" xlink:href="#Degradado_sin_nombre_2"/>
    <linearGradient id="Degradado_sin_nombre_231" data-name="Degradado sin nombre 2" x1="611.2" y1="198.5" x2="627.2" y2="198.5" xlink:href="#Degradado_sin_nombre_2"/>
    <linearGradient id="Degradado_sin_nombre_232" data-name="Degradado sin nombre 2" x1="632.2" y1="198.4" x2="648.2" y2="198.4" xlink:href="#Degradado_sin_nombre_2"/>
  </defs>
  <path class="st0" d="M62.2.9c-5.3,2.3-5.4,2.7-29.6,66.9-10.5,27.9-20.3,53.6-21.9,57.2-1.6,3.6-3.6,9.6-4.4,13.3-.9,3.8-2.1,7.8-2.7,8.9-1.5,2.9-.3,3.4,9.7,4.2,11.5,1,24-.9,27.1-4s2.3-3.4,2.3-4.7c0-3.9,8.8-25.8,11.8-29.6,3.8-4.6,10.9-9.5,18-12.1,7.8-3,20.9-2.4,28,1.2,5.9,3,7.2,5.4,16.3,28.4,3.8,9.8,7.6,18.6,8.6,19.6,1.4,1.6,3.4,1.8,18.3,1.8h16.7l-4.2-12.3c-5.3-15.4-46.5-123.2-50-131-1.5-3.1-3.6-6.2-4.8-6.9-2.7-1.4-36.2-2.2-39.2-.9ZM89.3,50.8c3.5,9.5,6.4,18.2,6.4,19.3,0,3.7-6.3,15-9.2,16.5-6,3.1-8.4.9-16-14.3l-3.1-6.3,5.8-15.7c3.1-8.7,5.9-16.2,6.2-16.6,1.7-2.8,4,1.2,9.9,17.1h0ZM60.4,70.6c6.1,4,8.2,13.8,4.3,20.2-4.8,7.9-15,5.9-20-3.9-2.6-5-2.5-8.8.3-13,4-6,9.6-7.2,15.4-3.3ZM117.2,72c4,4.1,4.6,11.2,1.3,15.9-3,4.4-8.2,7.1-13.5,7.1s-9.6-4.7-6.9-12.6c2-6,6.1-11.3,9.9-12.9s5.8-1,9.2,2.5Z"/>
  <path class="st9" d="M153.4,1.7c-1.6,1.8-1.3,3.3,6.7,30.4,28.3,95.9,33.6,111.9,38.2,116.6,2.9,2.9,10.1,3.8,20.2,2.6,5.9-.7,9-1.6,10.3-2.9,1.2-1.3,6.2-17.4,14.6-46.7,10.5-36.8,13-44.7,14.4-44.7s2,.8,2.3,1.7c.3,1,2.8,9.7,5.5,19.3,9.8,34.7,19.3,66.6,20.7,69.2,2,3.9,6.9,5.1,19,4.6,10.9-.5,12.9-1.3,14.6-5.8,2.9-7.5,40.1-129.8,41.7-137.2.8-3.4.7-4.8-.5-6.6S359,0,346.6,0s-13.9.5-15.1,1.1c-1.1.6-2.6,2.6-3.4,4.4-1.3,3.2-11.3,43.5-19.5,79-4,17.1-5,19.8-6.9,17.9s-13.4-45.4-23-81.9C273.2-.5,273.7,0,257.2,0s-12.5.1-14,2.3c-.8,1.3-3.8,11.4-6.6,22.3-8.8,35-18.8,73.1-19.8,75.7-2.4,6.2-4.4,4-7-7.8-1.8-8.3-6.5-27.8-17.2-71.7-2.2-9.2-4.7-17.5-5.4-18.5-1.2-1.6-3.2-1.8-16.7-2.1C156.5-.1,155,0,153.4,1.7h0Z"/>
  <path class="st3" d="M386.4,1.8c-1.6,1.7-1.7,8.2-1.7,73v71.1l2.4,2.8,2.4,2.8h13.1c18.7,0,17.7,1.6,17.3-26.5l-.4-22h23.8l3.8,7.7c7.2,14.8,22.7,40.2,25,41,1.1.4,8.1.7,15.4.7,12.3-.1,13.5-.2,15.5-2.3l2.2-2.2-4.2-8.2c-2.4-4.5-7.4-13.6-11.2-20.3-7-12.2-14.1-25.4-14.1-26.1s3-2.3,6.8-4.7c7.1-4.5,15-12.3,17.5-17.2,3.8-7.5,4.9-24.5,2.2-34.9-4-15.2-11.7-25.8-22.3-30.7C468.1.4,464.5,0,424.6,0s-36.7.1-38.2,1.8ZM456.1,31.2c9.1,2.3,14.9,13.7,12.8,25.1-1.3,6.8-4.6,11.7-9.5,14.1-2.9,1.3-6.9,1.6-22.1,1.6h-18.7l.5-20.5c.3-11.3.7-20.9,1-21.3.7-1.2,31-.3,36,1h0Z"/>
  <path class="st1" d="M581,.7c-3,.6-3.4,1.2-9.6,16.3-5.3,12.8-46.3,126.8-46.7,130-.5,3.2,0,4,4.2,5.1,5.4,1.4,29.3.3,30.7-1.5.6-.7,2.4-5.3,4-10.2,5.1-15.7,6.5-18.2,10.3-18.9,1.8-.3,14.3-.5,27.7-.3l24.4.3,5.6,14c3.1,7.7,6,14.6,6.4,15.3,1.9,2.8,24.9,1.1,33.3-2.4l3.3-1.4-1.8-3.2c-1.1-1.8-10.3-25.6-20.6-52.8-28.1-74.1-33.3-87.3-35.6-89.3C614.8.2,612.4,0,598.8.1c-8.6,0-16.6.4-17.8.6h0ZM602.2,44.7c1.4,4.9,5.3,16.6,8.6,26.1s5.9,18,5.7,19c-.3,1.5-2.1,1.7-16.8,2-12.2.2-17,0-18.2-1-1.4-1.2-.8-3.7,6.8-26.8,4.7-14,8.6-26.1,8.9-26.8,1-2.9,2.5-.6,5,7.5Z"/>
  <path class="st5" d="M199.2,180.6c-1.3,1.3-1.4,1.9-.4,2.5,1.6.9,3.9-.7,3.9-2.7s-1.5-1.8-3.5.2Z"/>
  <path class="st4" d="M89.9,185c-6.7,1.6-10.7,7.6-10,15.2.9,9,7.5,14,15.4,11.9,2.2-.6,4.7-1.6,5.7-2.3,1.6-1.2,1.6-1.5.2-3.6-1.5-2-1.8-2.1-3.8-.7-3.1,2.2-8,1.9-10.3-.6-2.9-3.2-2.6-10.5.5-13,2.8-2.3,6.9-2.4,9.9-.3,2.2,1.5,2.4,1.5,3.7-.2,2-2.6,1.9-3.2-1.2-4.7-4.2-2.2-6.5-2.5-10.1-1.7h0Z"/>
  <path class="st8" d="M139.2,184.7c-6,1.6-9.5,6.7-9.5,14s6.6,15.3,15.1,13.4c2.3-.5,4.9-1.6,5.7-2.5,1.4-1.4,1.4-1.7-.3-3.6-1.6-1.8-2-1.9-3.5-.5-1.7,1.6-6.7,2-8.6.7-3.7-2.4-4.4-9.6-1.3-13.6,2.3-3,7.2-3.5,10.4-1.2,1.7,1.2,2.1,1.2,3.3-.5,1.1-1.6,1.1-2.3.2-3.4-1.1-1.3-7.6-3.7-9-3.4-.3.1-1.4.4-2.5.6h0Z"/>
  <path class="st6" d="M418.4,185c-4,1.2-5.8,2.9-7.9,7.8-2.4,5.3-1.7,11,1.8,15.2,3.2,3.7,8.5,5.5,12.3,4.2,1.5-.5,4-.8,5.4-.5l2.6.5-.3-7.3-.3-7.4-5.2-.3c-5-.3-5.2-.2-4.9,2,.2,1.7,1,2.3,2.8,2.4,4.3.1,1.7,5.4-2.7,5.4s-6-1.6-7.1-4.9c-1.3-3.6-.6-6.9,2.1-9.9,2.4-2.6,7.8-3,9.8-.6,1.2,1.4,1.4,1.4,2.6-.2,1.8-2.4,1.7-3.1-.9-4.8-3.2-1.9-6.8-2.5-10.1-1.6h0Z"/>
  <path class="st7" d="M457.6,185c-6.5,1.9-9.9,6.4-9.9,13.3s4.7,13.7,11.9,13.7c8.4-.1,13.1-4.9,13.1-13.5s-7.3-15.8-15.1-13.5ZM465.2,192.5c3.1,3,3.3,8.2.4,11.9-4.4,5.6-12.9,1.8-12.9-5.9s7.5-11.1,12.5-6Z"/>
  <path class="st2" d="M656.9,185.6c-2,.8-3.4,2.2-3.8,4-1.1,4.5.7,7.7,6.1,10.6,3.2,1.7,5,3.4,5,4.5,0,2.4-3.9,2.9-6.9.9-2.2-1.4-2.5-1.3-4,.3s-1.5,1.9,0,3.4c4.8,4.3,10.9,4.3,14.3,0,3.9-5,1.5-10.4-6-13.8-2.6-1.2-4-2.4-3.8-3.4.4-2.1,4.2-2.6,6.1-.7s1.7,1.3,3.3-.5c1.6-1.7,1.6-2.1.3-3.4-2.5-2.6-7.2-3.4-10.7-1.9h0Z"/>
  <path class="st12" d="M5,198.5l-5,13.5h2.8c2.1,0,2.9-.7,3.8-3,.9-2.7,1.4-3,5.5-3s4.5.3,5.5,3c.8,2.4,1.6,3,3.9,3h2.8l-4.5-13.5c-4.3-12.7-4.8-13.5-7.2-13.5s-2.9.9-7.6,13.5ZM14.7,199.7c0,.7-1.2,1.3-2.6,1.3-2,0-2.5-.4-2-1.6.3-.9.9-2.8,1.3-4.2l.6-2.7,1.3,3c.7,1.6,1.3,3.6,1.4,4.2Z"/>
  <path class="st20" d="M28.5,198.5l-.3,13.5h2.8c2.5,0,2.7-.3,2.7-4.5s0-4.5,3.4-4.5,4.5-.9,6.3-2.4c2.3-2,2.8-3.2,2.7-6.7-.2-6.3-3.6-8.9-11.4-8.9h-5.9l-.3,13.5h0ZM40.7,191.9c.5,1.1,1,2.2,1,2.5,0,1.3-3.4,3.6-5.5,3.6s-2.4-.6-2.7-3.5c-.5-4.2-.3-4.5,3.3-4.5s3.2.7,3.9,1.9Z"/>
  <path class="st22" d="M50.7,198.5v13.5h7.5c7.3,0,7.5-.1,7.5-2.5s-.3-2.5-5-2.5h-5v-22h-5s0,13.5,0,13.5Z"/>
  <path class="st21" d="M69.7,198.5v13.5h5v-27h-5v13.5Z"/>
  <path class="st23" d="M109.9,196.7c-2.2,6.5-4.4,12.6-4.7,13.5-.6,1.5-.2,1.8,2,1.8s2.9-.7,3.8-3c1-2.7,1.6-3,5.5-3s4.4.3,5.3,3c.9,2.4,1.7,3,4,3h2.8l-4.6-13.5c-4.5-12.8-4.8-13.5-7.4-13.5s-2.9.7-6.7,11.7ZM118.4,197l1,4h-2.9c-2.5,0-2.9-.3-2.3-1.8.4-.9,1-2.7,1.2-4,.8-3.3,1.8-2.7,3,1.8Z"/>
  <path class="st15" d="M156,198.5l-.2,13.5h5.9v-27h-5.6v13.5h0Z"/>
  <path class="st16" d="M169.1,188.5c-8.4,8.9-3.1,23.8,8.5,23.8s8.5-2.3,11.2-7.5c2.9-5.7,2-11.9-2.6-16.5s-3.9-3.3-8.5-3.3-5.6.4-8.6,3.5h0ZM182.7,192c2.9,2.9,2.8,10.2-.2,13-4.1,3.8-9.9,2.2-11.7-3.3-1.3-3.9-.1-8.3,2.6-10.5,2.5-1.8,7-1.5,9.3.8h0Z"/>
  <path class="st13" d="M195.5,186.1c-1.6.9-1.8,2.6-1.8,13.4v12.5h2.5c2.5,0,2.5-.1,2.5-8.5s.3-8.5.8-8.5,2.9,3.8,5.6,8.5c3.9,6.9,5.3,8.5,7.2,8.5h2.4v-27h-2.5c-2.4,0-2.5.2-2.5,7s-.4,7-1,7-1-.4-1-.8c0-1.6-8.3-13.2-9.4-13.2s-1.9.5-2.8,1.1Z"/>
  <path class="st14" d="M228.5,185.5c-.4.5,3.8,18.3,5.8,24.7.3,1.2,1.5,1.8,3.3,1.8,2.6,0,2.9-.5,4.1-5.8,2-8.6,2.4-8.8,4.4-1.2,1.6,6.5,2,7,4.5,7s2.8-.3,5.9-12.4c1.8-6.8,3.2-12.6,3.2-12.9s-1.1-.7-2.5-.9c-2.3-.5-2.5-.1-4,6.3-.8,3.7-1.5,7.5-1.5,8.3s-.4,1.6-.9,1.6-1.8-3.7-2.8-8.3c-1.6-6.9-2.2-8.2-3.8-8.2s-2.3,1.4-4,8.2c-1.1,4.5-2.3,8.4-2.6,8.8-.4.3-1.2-2.5-1.9-6.2-1.7-9.2-2.6-11.3-4.8-11.3s-2.1.2-2.4.5h0Z"/>
  <path class="st11" d="M264.7,185.2c0,.2-.1,6.3-.3,13.6l-.2,13.2h7.3c7,0,7.2-.1,7.2-2.5s-.4-2.5-4.5-2.5-4.5-.1-4.5-3,.2-3,4-3,4-.3,4-2.5-.4-2.5-4-2.5-4-.2-4-3,.2-3,4.5-3,4.5-.2,4.5-2.5-.2-2.5-7-2.5-7,.1-7,.2Z"/>
  <path class="st24" d="M285.7,198.5v13.5h6.5c5.7,0,6.9-.3,9-2.5,2.9-2.8,3.2-6.1,1-9.3-1.2-1.6-1.3-2.7-.5-4.1,1.6-3.2,1.2-6-1.5-8.6-2-2.1-3.4-2.5-8.5-2.5h-6v13.5h0ZM297.6,192.4c.4,2.2-2.3,4.6-5.1,4.6s-1.8-.8-1.8-3.6.1-3.5,3.2-3.2c2.3.2,3.4.9,3.7,2.2h0ZM297.5,202.2c1.9,1.9-.4,4.8-3.8,4.8s-3-.3-3-3,.4-3,2.8-3,3.3.5,4,1.2Z"/>
  <path class="st17" d="M318.7,198.5v13.5h2.5c2.3,0,2.5-.3,2.5-5s.4-5,1.5-5,2.6,2.2,4,5c2.2,4.3,2.9,5,5.5,5h3l-2.6-5.1-2.5-5.1,2.1-2.3c3.3-3.5,3.1-9.1-.4-12.1-2.2-2-3.8-2.4-9.2-2.4h-6.4v13.5h0ZM331.7,191.9c1.3,2.6-1.1,5.1-5.1,5.1s-2.9-.3-2.9-3.5.2-3.5,3.5-3.5,3.7.6,4.5,1.9Z"/>
  <path class="st19" d="M342.7,198.5v13.5h7.5c7.3,0,7.5-.1,7.5-2.5s-.4-2.5-4.3-2.5-5.6-.3-4.9-3.5c.4-2.2,1-2.5,4.3-2.5s3.9-.3,3.9-2.5-.4-2.5-4-2.5-4-.2-4-3,.2-3,4.5-3,4.5-.2,4.5-2.5-.2-2.5-7.5-2.5h-7.5v13.5Z"/>
  <path class="st18" d="M364.7,198.5v13.5h2.5c2.4,0,2.5-.3,2.5-5.5v-5.5h4.5c4.1,0,4.5-.2,4.5-2.5s-.4-2.5-4.5-2.5-4.5-.1-4.5-3v-3h6c5.7,0,6-.1,6-2.5s-.1-2.5-8.5-2.5h-8.5v13.5Z"/>
  <path class="st10" d="M386.7,195.8c0,8.2.4,11.3,1.6,13,2.3,3.3,6,4.5,10,3.2,5.5-1.9,6.4-4.1,6.4-16.2v-10.8h-2.5c-1.7,0-2.5,3.3-2.5,9.8,0,10.4-.7,12.2-4.6,12.2s-3.4-1.6-3.4-12.6,0-9.4-2.5-9.4h-2.5v10.8Z"/>
  <path class="st28" d="M437.7,198.5v13.5h5v-27h-5v13.5Z"/>
  <path class="st29" d="M494.2,186.2c-6.3,17.7-8.5,24.1-8.5,24.9s1.1.9,2.4.9,2.7-.8,3.5-3c.9-2.7,1.4-3,5.5-3s4.5.3,5.5,3c.7,2.3,1.6,3,3.5,3s2.6-.6,2.5-1.3c0-.6-1.9-6.6-4.3-13.2-3.9-10.9-4.5-12-7-12.3-1.5-.2-2.8.2-3.1,1h0ZM499.7,199.7c0,.7-1.1,1.3-2.5,1.3-2.8,0-3-.4-1.3-5.1l1.2-3.4,1.2,3c.7,1.7,1.3,3.6,1.4,4.2h0Z"/>
  <path class="st26" d="M515.5,186.1c-1.6.9-1.8,2.6-1.8,13.4v12.5h2.5c2.4,0,2.4-.2,2.7-9.3l.3-9.2,5.3,9.2c4.2,7.3,5.8,9.3,7.6,9.3s2.2-.2,1.9-13.3l-.3-13.2-2.6-.3-2.7-.4.7,7.1c.6,7.3-.2,9-2.2,4.6-1.7-3.8-7.5-11.4-8.7-11.4s-1.8.4-2.7,1h0Z"/>
  <path class="st27" d="M540.7,198.5v13.5h5v-27h-5v13.5Z"/>
  <path class="st25" d="M553.4,185.7c-.4.3-.7,6.4-.7,13.5v12.8h2.5c2.5,0,2.5-.1,2.5-8.3v-8.2c0,0,3.6,6.8,3.6,6.8,1.9,3.8,4,6.7,4.7,6.5s2.6-3.3,4.4-6.8l3.2-6.5v16.5h5.6l-.3-12.2c-.2-10-.6-12.5-1.9-13.6-3.5-2.6-5-1.4-7.9,6.3-2.7,6.9-4.4,9.3-4.4,6.2s-1.3-4-3-7.5c-2.4-5-3.4-6.2-5.3-6.2s-2.7.3-3,.7h0Z"/>
  <path class="st30" d="M592.2,186.2c-.2.7-2.4,6.8-4.8,13.5l-4.4,12.3h2.7c2.2,0,3-.6,3.9-3,.9-2.7,1.4-3,5.5-3s4.5.3,5.5,3c.7,2.3,1.6,3,3.5,3s2.6-.3,2.6-.8c0-.4-2-6.3-4.4-13.2-4-11.5-4.5-12.5-7-12.8-1.5-.2-2.8.2-3.1,1ZM597.1,198.2c.6,2.5.4,2.8-1.9,2.8s-2.9-.4-1.4-5c1.3-3.5,2.1-2.9,3.3,2.2h0Z"/>
  <path class="st32" d="M611.7,198.5v13.5h7.5c7.3,0,7.5-.1,7.5-2.5s-.3-2.5-5-2.5h-5v-22h-5v13.5Z"/>
  <path class="st31" d="M632.7,198.5v13.5h7.5c7.3,0,7.5-.1,7.5-2.5s-.3-2.5-5-2.5-5-.1-5-2.9.3-3,4.3-3.3c3.5-.2,4.3-.7,4.5-2.6.3-2,0-2.2-4.2-2.2s-4.6-.1-4.6-3,0-3,5.1-3,5-.2,4.7-2.3c-.3-2-.9-2.2-7.5-2.5l-7.3-.3v13.6Z"/>
</svg>