<?xml version="1.0" encoding="UTF-8"?>
<svg id="Capa_1" xmlns="http://www.w3.org/2000/svg" xmlns:xlink="http://www.w3.org/1999/xlink" version="1.1" viewBox="0 0 2235.9 612.2">
  <!-- Generator: Adobe Illustrator 29.0.0, SVG Export Plug-In . SVG Version: 2.1.0 Build 186)  -->
  <defs>
    <style>
      .st0 {
        stroke: url(#Degradado_sin_nombre_2);
      }

      .st0, .st1, .st2, .st3, .st4, .st5, .st6, .st7, .st8, .st9, .st10, .st11, .st12, .st13, .st14, .st15, .st16, .st17, .st18, .st19, .st20, .st21, .st22, .st23, .st24, .st25, .st26, .st27, .st28, .st29, .st30, .st31, .st32, .st33, .st34 {
        fill: #fff;
      }

      .st1 {
        stroke: url(#Degradado_sin_nombre_23);
      }

      .st2 {
        stroke: url(#Degradado_sin_nombre_29);
      }

      .st3 {
        stroke: url(#Degradado_sin_nombre_22);
      }

      .st4 {
        stroke: url(#Degradado_sin_nombre_25);
      }

      .st5 {
        stroke: url(#Degradado_sin_nombre_24);
      }

      .st6 {
        stroke: url(#Degradado_sin_nombre_27);
      }

      .st7 {
        stroke: url(#Degradado_sin_nombre_28);
      }

      .st8 {
        stroke: url(#Degradado_sin_nombre_26);
      }

      .st9 {
        stroke: url(#Degradado_sin_nombre_21);
      }

      .st10 {
        stroke: url(#Degradado_sin_nombre_224);
      }

      .st11 {
        stroke: url(#Degradado_sin_nombre_219);
      }

      .st12 {
        stroke: url(#Degradado_sin_nombre_210);
      }

      .st13 {
        stroke: url(#Degradado_sin_nombre_217);
      }

      .st14 {
        stroke: url(#Degradado_sin_nombre_218);
      }

      .st15 {
        stroke: url(#Degradado_sin_nombre_215);
      }

      .st16 {
        stroke: url(#Degradado_sin_nombre_216);
      }

      .st17 {
        stroke: url(#Degradado_sin_nombre_221);
      }

      .st18 {
        stroke: url(#Degradado_sin_nombre_223);
      }

      .st19 {
        stroke: url(#Degradado_sin_nombre_222);
      }

      .st20 {
        stroke: url(#Degradado_sin_nombre_211);
      }

      .st21 {
        stroke: url(#Degradado_sin_nombre_213);
      }

      .st22 {
        stroke: url(#Degradado_sin_nombre_212);
      }

      .st23 {
        stroke: url(#Degradado_sin_nombre_214);
      }

      .st24 {
        stroke: url(#Degradado_sin_nombre_220);
      }

      .st25 {
        stroke: url(#Degradado_sin_nombre_229);
      }

      .st26 {
        stroke: url(#Degradado_sin_nombre_227);
      }

      .st27 {
        stroke: url(#Degradado_sin_nombre_228);
      }

      .st28 {
        stroke: url(#Degradado_sin_nombre_225);
      }

      .st29 {
        stroke: url(#Degradado_sin_nombre_226);
      }

      .st30 {
        stroke: url(#Degradado_sin_nombre_233);
      }

      .st31 {
        stroke: url(#Degradado_sin_nombre_230);
      }

      .st32 {
        stroke: url(#Degradado_sin_nombre_232);
      }

      .st33 {
        stroke: url(#Degradado_sin_nombre_231);
      }

      .st34 {
        stroke: url(#Degradado_sin_nombre_234);
      }
    </style>
    <linearGradient id="Degradado_sin_nombre_2" data-name="Degradado sin nombre 2" x1="63.1" y1="143.2" x2="548.3" y2="143.2" gradientUnits="userSpaceOnUse">
      <stop offset="0" stop-color="#fff"/>
      <stop offset="1" stop-color="#000"/>
    </linearGradient>
    <linearGradient id="Degradado_sin_nombre_21" data-name="Degradado sin nombre 2" x1="-.5" y1="306.2" x2="613.3" y2="306.2" xlink:href="#Degradado_sin_nombre_2"/>
    <linearGradient id="Degradado_sin_nombre_22" data-name="Degradado sin nombre 2" x1="717.5" y1="237.9" x2="1074.3" y2="237.9" xlink:href="#Degradado_sin_nombre_2"/>
    <linearGradient id="Degradado_sin_nombre_23" data-name="Degradado sin nombre 2" x1="1055.6" y1="237.5" x2="1530.1" y2="237.5" xlink:href="#Degradado_sin_nombre_2"/>
    <linearGradient id="Degradado_sin_nombre_24" data-name="Degradado sin nombre 2" x1="1580.1" y1="238" x2="1853.5" y2="238" xlink:href="#Degradado_sin_nombre_2"/>
    <linearGradient id="Degradado_sin_nombre_25" data-name="Degradado sin nombre 2" x1="1896.2" y1="238.5" x2="2236.7" y2="238.5" xlink:href="#Degradado_sin_nombre_2"/>
    <linearGradient id="Degradado_sin_nombre_26" data-name="Degradado sin nombre 2" x1="1158.4" y1="475.3" x2="1169.7" y2="475.3" xlink:href="#Degradado_sin_nombre_2"/>
    <linearGradient id="Degradado_sin_nombre_27" data-name="Degradado sin nombre 2" x1="890.9" y1="514.7" x2="943.3" y2="514.7" xlink:href="#Degradado_sin_nombre_2"/>
    <linearGradient id="Degradado_sin_nombre_28" data-name="Degradado sin nombre 2" x1="1003.7" y1="513.9" x2="1054" y2="513.9" xlink:href="#Degradado_sin_nombre_2"/>
    <linearGradient id="Degradado_sin_nombre_29" data-name="Degradado sin nombre 2" x1="1635.2" y1="514.6" x2="1689.4" y2="514.6" xlink:href="#Degradado_sin_nombre_2"/>
    <linearGradient id="Degradado_sin_nombre_210" data-name="Degradado sin nombre 2" x1="1722.5" y1="514.1" x2="1780" y2="514.1" xlink:href="#Degradado_sin_nombre_2"/>
    <linearGradient id="Degradado_sin_nombre_211" data-name="Degradado sin nombre 2" x1="2184.8" y1="515" x2="2225" y2="515" xlink:href="#Degradado_sin_nombre_2"/>
    <linearGradient id="Degradado_sin_nombre_212" data-name="Degradado sin nombre 2" x1="710.3" y1="514.5" x2="766.5" y2="514.5" xlink:href="#Degradado_sin_nombre_2"/>
    <linearGradient id="Degradado_sin_nombre_213" data-name="Degradado sin nombre 2" x1="774.2" y1="514.5" x2="815.6" y2="514.5" xlink:href="#Degradado_sin_nombre_2"/>
    <linearGradient id="Degradado_sin_nombre_214" data-name="Degradado sin nombre 2" x1="825.1" y1="514.4" x2="860.1" y2="514.4" xlink:href="#Degradado_sin_nombre_2"/>
    <linearGradient id="Degradado_sin_nombre_215" data-name="Degradado sin nombre 2" x1="868.1" y1="514.5" x2="880.4" y2="514.5" xlink:href="#Degradado_sin_nombre_2"/>
    <linearGradient id="Degradado_sin_nombre_216" data-name="Degradado sin nombre 2" x1="947.7" y1="514.5" x2="1002.3" y2="514.5" xlink:href="#Degradado_sin_nombre_2"/>
    <linearGradient id="Degradado_sin_nombre_217" data-name="Degradado sin nombre 2" x1="1062.6" y1="514.5" x2="1076.9" y2="514.5" xlink:href="#Degradado_sin_nombre_2"/>
    <linearGradient id="Degradado_sin_nombre_218" data-name="Degradado sin nombre 2" x1="1083.4" y1="514.8" x2="1142" y2="514.8" xlink:href="#Degradado_sin_nombre_2"/>
    <linearGradient id="Degradado_sin_nombre_219" data-name="Degradado sin nombre 2" x1="1148.3" y1="514.6" x2="1196.9" y2="514.6" xlink:href="#Degradado_sin_nombre_2"/>
    <linearGradient id="Degradado_sin_nombre_220" data-name="Degradado sin nombre 2" x1="1226.9" y1="514.5" x2="1298.5" y2="514.5" xlink:href="#Degradado_sin_nombre_2"/>
    <linearGradient id="Degradado_sin_nombre_221" data-name="Degradado sin nombre 2" x1="1307.6" y1="514.2" x2="1341.4" y2="514.2" xlink:href="#Degradado_sin_nombre_2"/>
    <linearGradient id="Degradado_sin_nombre_222" data-name="Degradado sin nombre 2" x1="1356.3" y1="514.4" x2="1397.8" y2="514.4" xlink:href="#Degradado_sin_nombre_2"/>
    <linearGradient id="Degradado_sin_nombre_223" data-name="Degradado sin nombre 2" x1="1430.8" y1="514.5" x2="1475.2" y2="514.5" xlink:href="#Degradado_sin_nombre_2"/>
    <linearGradient id="Degradado_sin_nombre_224" data-name="Degradado sin nombre 2" x1="1485.2" y1="514.3" x2="1520.3" y2="514.3" xlink:href="#Degradado_sin_nombre_2"/>
    <linearGradient id="Degradado_sin_nombre_225" data-name="Degradado sin nombre 2" x1="1534.9" y1="514.4" x2="1574.5" y2="514.4" xlink:href="#Degradado_sin_nombre_2"/>
    <linearGradient id="Degradado_sin_nombre_226" data-name="Degradado sin nombre 2" x1="1584.4" y1="515.1" x2="1626.3" y2="515.1" xlink:href="#Degradado_sin_nombre_2"/>
    <linearGradient id="Degradado_sin_nombre_227" data-name="Degradado sin nombre 2" x1="1699.9" y1="514.5" x2="1712.2" y2="514.5" xlink:href="#Degradado_sin_nombre_2"/>
    <linearGradient id="Degradado_sin_nombre_228" data-name="Degradado sin nombre 2" x1="1808.4" y1="514.7" x2="1861.1" y2="514.7" xlink:href="#Degradado_sin_nombre_2"/>
    <linearGradient id="Degradado_sin_nombre_229" data-name="Degradado sin nombre 2" x1="1871.7" y1="514.3" x2="1918.9" y2="514.3" xlink:href="#Degradado_sin_nombre_2"/>
    <linearGradient id="Degradado_sin_nombre_230" data-name="Degradado sin nombre 2" x1="1932.7" y1="514.5" x2="1945" y2="514.5" xlink:href="#Degradado_sin_nombre_2"/>
    <linearGradient id="Degradado_sin_nombre_231" data-name="Degradado sin nombre 2" x1="1959.8" y1="514.4" x2="2020.6" y2="514.4" xlink:href="#Degradado_sin_nombre_2"/>
    <linearGradient id="Degradado_sin_nombre_232" data-name="Degradado sin nombre 2" x1="2028.1" y1="514.7" x2="2082.8" y2="514.7" xlink:href="#Degradado_sin_nombre_2"/>
    <linearGradient id="Degradado_sin_nombre_233" data-name="Degradado sin nombre 2" x1="2093.2" y1="514.4" x2="2128.2" y2="514.4" xlink:href="#Degradado_sin_nombre_2"/>
    <linearGradient id="Degradado_sin_nombre_234" data-name="Degradado sin nombre 2" x1="2140.7" y1="514.2" x2="2175.7" y2="514.2" xlink:href="#Degradado_sin_nombre_2"/>
  </defs>
  <path class="st0" d="M291,68.8c-15,9.8-71,45.3-101,63.9-11.8,7.3-36.8,22.9-55.5,34.5s-41.2,25.5-50,30.8-17.1,10.7-18.5,12.2c-3.5,3.8-3.2,9.1.9,12.7,3.9,3.5,7.4,3.6,13.5.3,2.6-1.4,39.1-24,80.9-50.2,123.2-77.1,144.9-90.4,146.1-90,1.5.6,39.2,23.8,80.6,49.7,17.9,11.1,41.2,25.6,51.8,32.2s36.1,22.7,56.7,35.8,38.9,24.1,40.6,24.5c2.3.5,3.8.2,5.8-1.2,4.3-3.2,5.6-6.5,4.6-11-1.2-4.6,2.2-2.3-64.2-43.3-26.3-16.2-61.7-38.2-78.8-48.9-17-10.7-40.7-25.4-52.5-32.7s-26.4-16.3-32.5-20c-6-3.8-12.1-7-13.5-7.2-1.8-.2-5.9,1.9-15,7.9Z"/>
  <g>
    <path class="st9" d="M283.5.8c-48,3.6-95.5,19.1-136.6,44.5C30.5,117.3-23.4,249.6,9.5,382.5c14.4,58.3,41.1,103.4,87.1,147.2,36,34.5,86.8,61.7,137.3,73.6,48,11.4,94,11.9,140.1,1.7,70.8-15.6,134.9-56.9,178.6-115,52.1-69.3,70.9-152.1,54.3-240.2-15.7-83.7-65.6-156.9-137.9-202.6C415.1,13.2,346.6-3.9,283.5.8ZM330,19.2c25.1,1.5,58.2,9.4,84.4,20.1,66.1,27.1,118,75.2,150.2,139.4,15.7,31.4,24.1,60.4,28.5,98.5,1.6,13.8,1.6,55.2,0,66.5-4.9,35-12.1,58.8-26.8,89.2-5.5,11.5-8.1,15.8-9.2,15.6-.9-.2-4.1-4.1-7.3-8.8-8.2-12.3-13.3-17.6-27-28.6-23.7-19-29.4-27-30.9-43.6-2.1-22.7-3.3-29.1-10.8-58.9-8.3-33.3-11.5-42.4-16.4-46.5-2.6-2.2-3.2-2.3-5-1.1-1.1.7-4.4,5.6-7.3,10.8s-5.9,9.5-6.8,9.7c-1.1.2-2.7-2.1-5.4-8.1-5.1-10.8-9.1-13.9-13.4-10-1.5,1.4-1.8,3.2-1.8,12s-1.3,14.3-6.8,14.3-24.7,9.2-29.2,12.8c-3.6,2.9-10.3,11.5-15.3,19.6-2.3,3.7-4.2,5.2-10.5,8.3-9.9,4.9-11.5,7.6-10.9,18.3.8,15.6,7,23.3,25.3,31.3,14,6.2,19.1,9.9,22.9,16.8,2.8,5.1,3,6,2.9,16.4,0,10.6-.2,11.6-5.1,25.5-6.6,18.6-7.7,24.7-7,36.3.8,11.9,3.9,23,13.2,47.2,8.2,21.5,11.1,31.3,12.1,41.1,1,9.7.4,10.3-17.8,16.2-8.4,2.8-18.2,5.7-21.8,6.6-37.9,9-78.7,10.3-118,3.8-14.7-2.4-14.5-2.1-14.3-25,.2-27.6,3.9-47.7,12.8-69.2,11.4-27.5,15.4-43.2,16.2-62.5.6-16.1.3-18.4-8.4-53-9.1-36.6-8.5-51.6,2.7-63.8,6.2-6.8,10.6-8.7,23.3-9.8,19.7-1.7,37.7-8.3,48.9-18,10.7-9.3,20.2-27.2,23.6-44.1,1-5.2.8-8.6-.7-10.2-3.1-3.3-5.7-4.2-19.6-6.6-14.2-2.5-30.2-6.2-36.5-8.5-5.6-2-9.5-5.6-12.7-11.8-7.4-14.6-23.9-24-46.9-26.7-22-2.6-46.6,2.8-63.1,14.1-6.8,4.7-18.6,16.3-24.4,24-8.8,12-13.4,25.8-11.1,33.6,4.9,16.4,38.9,43.8,54.3,43.8s8.1-1.9,11.1-9.4c2-5.1,2.2-7.2,2.1-24.1-.1-10.2-.7-22.9-1.5-28.3-1.4-9.7-1-13.3,1.2-11.1s6.6,28.8,7.5,39.4c.7,9.6-.5,21.9-3.2,30-2.3,7.2-8.3,13.5-13.8,14.6-12,2.2-30.2-7.3-51.4-26.8-4.6-4.3-8.7-7.6-9.1-7.3s-1.7,4-2.9,8.3c-4.3,16.2-11.9,35.9-19.6,51.2-5.6,11.2-15.5,23.6-41,51.5-7.5,8.2-18.8,21.4-25.2,29.2-6.3,7.9-11.6,14.3-11.9,14.3-1.4,0-9.8-21-15.3-38.3-3.6-11.3-8.4-34.5-10.3-49.7-1.9-15.6-1.6-54.5.5-70,8.1-57.9,28.8-105.5,64.5-148,9.1-10.9,29.4-30.8,39.7-39.1,25-20.1,56-37.6,85.7-48.3,16-5.8,27.2-8.7,46.8-12.1,22.1-3.9,43.3-4.8,73-3h0Z"/>
    <g>
      <path class="st3" d="M851.6,67.8c-12,5.2-12.2,6.1-66.9,151.2-23.7,63.1-45.9,121.2-49.5,129.3s-8.1,21.7-9.9,30.1c-2,8.6-4.7,17.6-6.1,20.1-3.4,6.6-.7,7.7,21.9,9.5,26,2.3,54.3-2,61.3-9s5.2-7.7,5.2-10.6c0-8.8,19.9-58.3,26.7-66.9,8.6-10.4,24.6-21.5,40.7-27.4,17.6-6.8,47.2-5.4,63.3,2.7,13.3,6.8,16.3,12.2,36.8,64.2,8.6,22.2,17.2,42,19.4,44.3,3.2,3.6,7.7,4.1,41.4,4.1h37.7l-9.5-27.8c-12-34.8-105.1-278.5-113-296.1-3.4-7-8.1-14-10.9-15.6-6.1-3.2-81.8-5-88.6-2h0ZM912.9,180.6c7.9,21.5,14.5,41.1,14.5,43.6,0,8.4-14.2,33.9-20.8,37.3-13.6,7-19,2-36.2-32.3l-7-14.2,13.1-35.5c7-19.7,13.3-36.6,14-37.5,3.8-6.3,9,2.7,22.4,38.7h0ZM847.5,225.4c13.8,9,18.5,31.2,9.7,45.7-10.9,17.9-33.9,13.3-45.2-8.8-5.9-11.3-5.7-19.9.7-29.4,9-13.6,21.7-16.3,34.8-7.5h0ZM975.9,228.6c9,9.3,10.4,25.3,2.9,35.9-6.8,9.9-18.5,16-30.5,16s-21.7-10.6-15.6-28.5c4.5-13.6,13.8-25.5,22.4-29.2,8.6-3.6,13.1-2.3,20.8,5.7h0Z"/>
      <path class="st1" d="M1057.8,69.7c-3.6,4.1-2.9,7.5,15.1,68.7,64,216.8,76,252.9,86.3,263.6,6.6,6.6,22.8,8.6,45.7,5.9,13.3-1.6,20.3-3.6,23.3-6.6,2.7-2.9,14-39.3,33-105.6,23.7-83.2,29.4-101,32.6-101s4.5,1.8,5.2,3.8c.7,2.3,6.3,21.9,12.4,43.6,22.2,78.4,43.6,150.5,46.8,156.4,4.5,8.8,15.6,11.5,42.9,10.4,24.6-1.1,29.2-2.9,33-13.1,6.6-17,90.6-293.4,94.3-310.1,1.8-7.7,1.6-10.9-1.1-14.9-3.2-4.7-4.7-5-32.8-5s-31.4,1.1-34.1,2.5c-2.5,1.4-5.9,5.9-7.7,9.9-2.9,7.2-25.5,98.3-44.1,178.6-9,38.7-11.3,44.8-15.6,40.5s-30.3-102.6-52-185.1c-12.4-47.5-11.3-46.3-48.6-46.3s-28.3.2-31.6,5.2c-1.8,2.9-8.6,25.8-14.9,50.4-19.9,79.1-42.5,165.2-44.8,171.1-5.4,14-9.9,9-15.8-17.6-4.1-18.8-14.7-62.8-38.9-162.1-5-20.8-10.6-39.6-12.2-41.8-2.7-3.6-7.2-4.1-37.7-4.7-31.6-.7-35-.5-38.7,3.4h0Z"/>
      <path class="st5" d="M1584.4,69.9c-3.6,3.8-3.8,18.5-3.8,165v160.7l5.4,6.3,5.4,6.3h29.6c42.3,0,40,3.6,39.1-59.9l-.9-49.7h53.8l8.6,17.4c16.3,33.5,51.3,90.9,56.5,92.7,2.5.9,18.3,1.6,34.8,1.6,27.8-.2,30.5-.5,35-5.2l5-5-9.5-18.5c-5.4-10.2-16.7-30.7-25.3-45.9-15.8-27.6-31.9-57.4-31.9-59s6.8-5.2,15.4-10.6c16-10.2,33.9-27.8,39.6-38.9,8.6-17,11.1-55.4,5-78.9-9-34.4-26.4-58.3-50.4-69.4-26.7-12.2-34.8-13.1-125-13.1s-83,.2-86.3,4.1h0ZM1742,136.3c20.6,5.2,33.7,31,28.9,56.7-2.9,15.4-10.4,26.4-21.5,31.9-6.6,2.9-15.6,3.6-50,3.6h-42.3l1.1-46.3c.7-25.5,1.6-47.2,2.3-48.1,1.6-2.7,70.1-.7,81.4,2.3h0Z"/>
      <path class="st4" d="M2024.3,67.4c-6.8,1.4-7.7,2.7-21.7,36.8-12,28.9-104.7,286.6-105.6,293.9-1.1,7.2.2,9,9.5,11.5,12.2,3.2,66.2.7,69.4-3.4,1.4-1.6,5.4-12,9-23.1,11.5-35.5,14.7-41.1,23.3-42.7,4.1-.7,32.3-1.1,62.6-.7l55.2.7,12.7,31.6c7,17.4,13.6,33,14.5,34.6,4.3,6.3,56.3,2.5,75.3-5.4l7.5-3.2-4.1-7.2c-2.5-4.1-23.3-57.9-46.6-119.4-63.5-167.5-75.3-197.3-80.5-201.9-4.1-3.4-9.5-3.8-40.2-3.6-19.4.2-37.5.9-40.2,1.4h-.1ZM2072.3,166.9c3.2,11.1,12,37.5,19.4,59,7.5,21.5,13.3,40.7,12.9,42.9-.7,3.4-4.7,3.8-38,4.5-27.6.5-38.4-.2-41.1-2.3-3.2-2.7-1.8-8.4,15.4-60.6,10.6-31.6,19.4-59,20.1-60.6,2.3-6.6,5.7-1.4,11.3,17h0Z"/>
      <path class="st8" d="M1161.3,474c-2.9,2.9-3.2,4.3-.9,5.7,3.6,2,8.8-1.6,8.8-6.1s-3.4-4.1-7.9.5h0Z"/>
      <path class="st6" d="M914.2,484c-15.1,3.6-24.2,17.2-22.6,34.4,2,20.3,17,31.6,34.8,26.9,5-1.4,10.6-3.6,12.9-5.2,3.6-2.7,3.6-3.4.5-8.1-3.4-4.5-4.1-4.7-8.6-1.6-7,5-18.1,4.3-23.3-1.4-6.6-7.2-5.9-23.7,1.1-29.4,6.3-5.2,15.6-5.4,22.4-.7,5,3.4,5.4,3.4,8.4-.5,4.5-5.9,4.3-7.2-2.7-10.6-9.5-5-14.7-5.7-22.8-3.8h-.1Z"/>
      <path class="st7" d="M1025.7,483.3c-13.6,3.6-21.5,15.1-21.5,31.6s14.9,34.6,34.1,30.3c5.2-1.1,11.1-3.6,12.9-5.7,3.2-3.2,3.2-3.8-.7-8.1-3.6-4.1-4.5-4.3-7.9-1.1-3.8,3.6-15.1,4.5-19.4,1.6-8.4-5.4-9.9-21.7-2.9-30.7,5.2-6.8,16.3-7.9,23.5-2.7,3.8,2.7,4.7,2.7,7.5-1.1,2.5-3.6,2.5-5.2.5-7.7-2.5-2.9-17.2-8.4-20.3-7.7-.7.2-3.2.9-5.7,1.4h0Z"/>
      <path class="st2" d="M1656.8,484c-9,2.7-13.1,6.6-17.9,17.6-5.4,12-3.8,24.9,4.1,34.4,7.2,8.4,19.2,12.4,27.8,9.5,3.4-1.1,9-1.8,12.2-1.1l5.9,1.1-.7-16.5-.7-16.7-11.8-.7c-11.3-.7-11.8-.5-11.1,4.5.5,3.8,2.3,5.2,6.3,5.4,9.7.2,3.8,12.2-6.1,12.2s-13.6-3.6-16-11.1c-2.9-8.1-1.4-15.6,4.7-22.4,5.4-5.9,17.6-6.8,22.2-1.4,2.7,3.2,3.2,3.2,5.9-.5,4.1-5.4,3.8-7-2-10.9-7.2-4.3-15.4-5.7-22.8-3.6v.2Z"/>
      <path class="st12" d="M1745.4,484c-14.7,4.3-22.4,14.5-22.4,30.1s10.6,31,26.9,31c19-.2,29.6-11.1,29.6-30.5s-16.5-35.7-34.1-30.5h0ZM1762.6,500.9c7,6.8,7.5,18.5.9,26.9-9.9,12.7-29.2,4.1-29.2-13.3s17-25.1,28.3-13.6h0Z"/>
      <path class="st20" d="M2195.9,485.4c-4.5,1.8-7.7,5-8.6,9-2.5,10.2,1.6,17.4,13.8,24,7.2,3.8,11.3,7.7,11.3,10.2,0,5.4-8.8,6.6-15.6,2-5-3.2-5.7-2.9-9,.7-3.4,3.6-3.4,4.3.2,7.7,10.9,9.7,24.6,9.7,32.3,0,8.8-11.3,3.4-23.5-13.6-31.2-5.9-2.7-9-5.4-8.6-7.7.9-4.7,9.5-5.9,13.8-1.6,2.9,2.9,3.8,2.9,7.5-1.1,3.6-3.8,3.6-4.7.7-7.7-5.7-5.9-16.3-7.7-24.2-4.3h0Z"/>
      <path class="st22" d="M722.3,514.5l-11.3,30.5h6.3c4.7,0,6.6-1.6,8.6-6.8,2-6.1,3.2-6.8,12.4-6.8s10.2.7,12.4,6.8c1.8,5.4,3.6,6.8,8.8,6.8h6.3l-10.2-30.5c-9.7-28.7-10.9-30.5-16.3-30.5s-6.6,2-17.2,30.5h.2ZM744.2,517.2c0,1.6-2.7,2.9-5.9,2.9s-5.7-.9-4.5-3.6c.7-2,2-6.3,2.9-9.5l1.4-6.1,2.9,6.8c1.6,3.6,2.9,8.1,3.2,9.5h0Z"/>
      <path class="st21" d="M775.4,514.5l-.7,30.5h6.3c5.7,0,6.1-.7,6.1-10.2s0-10.2,7.7-10.2,10.2-2,14.2-5.4c5.2-4.5,6.3-7.2,6.1-15.1-.5-14.2-8.1-20.1-25.8-20.1h-13.3l-.7,30.5h.1ZM803,499.6c1.1,2.5,2.3,5,2.3,5.7,0,2.9-7.7,8.1-12.4,8.1s-5.4-1.4-6.1-7.9c-1.1-9.5-.7-10.2,7.5-10.2s7.2,1.6,8.8,4.3h0Z"/>
      <path class="st23" d="M825.6,514.5v30.5h17c16.5,0,17-.2,17-5.7s-.7-5.7-11.3-5.7h-11.3v-49.7h-11.3v30.5h-.1Z"/>
      <path class="st15" d="M868.6,514.5v30.5h11.3v-61h-11.3v30.5Z"/>
      <path class="st16" d="M959.4,510.4c-5,14.7-9.9,28.5-10.6,30.5-1.4,3.4-.5,4.1,4.5,4.1s6.6-1.6,8.6-6.8c2.3-6.1,3.6-6.8,12.4-6.8s9.9.7,12,6.8c2,5.4,3.8,6.8,9,6.8h6.3l-10.4-30.5c-10.2-28.9-10.9-30.5-16.7-30.5s-6.6,1.6-15.1,26.4ZM978.6,511.1l2.3,9h-6.6c-5.7,0-6.6-.7-5.2-4.1.9-2,2.3-6.1,2.7-9,1.8-7.5,4.1-6.1,6.8,4.1Z"/>
      <path class="st13" d="M1063.6,514.5l-.5,30.5h13.3v-61h-12.7l-.2,30.5h0Z"/>
      <path class="st14" d="M1093.2,491.9c-19,20.1-7,53.8,19.2,53.8s19.2-5.2,25.3-17c6.6-12.9,4.5-26.9-5.9-37.3-6.6-6.6-8.8-7.5-19.2-7.5s-12.7.9-19.4,7.9h0ZM1124,499.8c6.6,6.6,6.3,23.1-.5,29.4-9.3,8.6-22.4,5-26.4-7.5-2.9-8.8-.2-18.8,5.9-23.7,5.7-4.1,15.8-3.4,21,1.8Z"/>
      <path class="st11" d="M1152.9,486.5c-3.6,2-4.1,5.9-4.1,30.3v28.3h5.7c5.7,0,5.7-.2,5.7-19.2s.7-19.2,1.8-19.2,6.6,8.6,12.7,19.2c8.8,15.6,12,19.2,16.3,19.2h5.4v-61h-5.7c-5.4,0-5.7.5-5.7,15.8s-.9,15.8-2.3,15.8-2.3-.9-2.3-1.8c0-3.6-18.8-29.8-21.2-29.8s-4.3,1.1-6.3,2.5h0Z"/>
      <path class="st24" d="M1227.5,485.1c-.9,1.1,8.6,41.4,13.1,55.8.7,2.7,3.4,4.1,7.5,4.1,5.9,0,6.6-1.1,9.3-13.1,4.5-19.4,5.4-19.9,9.9-2.7,3.6,14.7,4.5,15.8,10.2,15.8s6.3-.7,13.3-28c4.1-15.4,7.2-28.5,7.2-29.2s-2.5-1.6-5.7-2c-5.2-1.1-5.7-.2-9,14.2-1.8,8.4-3.4,17-3.4,18.8s-.9,3.6-2,3.6-4.1-8.4-6.3-18.8c-3.6-15.6-5-18.5-8.6-18.5s-5.2,3.2-9,18.5c-2.5,10.2-5.2,19-5.9,19.9-.9.7-2.7-5.7-4.3-14-3.8-20.8-5.9-25.5-10.9-25.5s-4.7.5-5.4,1.1h0Z"/>
      <path class="st17" d="M1309.3,484.4c0,.5-.2,14.2-.7,30.7l-.5,29.8h16.5c15.8,0,16.3-.2,16.3-5.7s-.9-5.7-10.2-5.7-10.2-.2-10.2-6.8.5-6.8,9-6.8,9-.7,9-5.7-.9-5.7-9-5.7-9-.5-9-6.8.5-6.8,10.2-6.8,10.2-.5,10.2-5.7-.5-5.7-15.8-5.7-15.8.2-15.8.5v.4Z"/>
      <path class="st19" d="M1356.8,514.5v30.5h14.7c12.9,0,15.6-.7,20.3-5.7,6.6-6.3,7.2-13.8,2.3-21-2.7-3.6-2.9-6.1-1.1-9.3,3.6-7.2,2.7-13.6-3.4-19.4-4.5-4.7-7.7-5.7-19.2-5.7h-13.6v30.5h0ZM1383.7,500.7c.9,5-5.2,10.4-11.5,10.4s-4.1-1.8-4.1-8.1.2-7.9,7.2-7.2c5.2.5,7.7,2,8.4,5h0ZM1383.5,522.9c4.3,4.3-.9,10.9-8.6,10.9s-6.8-.7-6.8-6.8.9-6.8,6.3-6.8,7.5,1.1,9,2.7h0Z"/>
      <path class="st18" d="M1431.4,514.5v30.5h5.7c5.2,0,5.7-.7,5.7-11.3s.9-11.3,3.4-11.3,5.9,5,9,11.3c5,9.7,6.6,11.3,12.4,11.3h6.8l-5.9-11.5-5.7-11.5,4.7-5.2c7.5-7.9,7-20.6-.9-27.4-5-4.5-8.6-5.4-20.8-5.4h-14.5v30.5h.1ZM1460.8,499.6c2.9,5.9-2.5,11.5-11.5,11.5s-6.6-.7-6.6-7.9.5-7.9,7.9-7.9,8.4,1.4,10.2,4.3Z"/>
      <path class="st10" d="M1485.7,514.5v30.5h17c16.5,0,17-.2,17-5.7s-.9-5.7-9.7-5.7-12.7-.7-11.1-7.9c.9-5,2.3-5.7,9.7-5.7s8.8-.7,8.8-5.7-.9-5.7-9-5.7-9-.5-9-6.8.5-6.8,10.2-6.8,10.2-.5,10.2-5.7-.5-5.7-17-5.7h-17v30.9Z"/>
      <path class="st28" d="M1535.4,514.5v30.5h5.7c5.4,0,5.7-.7,5.7-12.4v-12.4h10.2c9.3,0,10.2-.5,10.2-5.7s-.9-5.7-10.2-5.7-10.2-.2-10.2-6.8v-6.8h13.6c12.9,0,13.6-.2,13.6-5.7s-.2-5.7-19.2-5.7h-19.2v30.5l-.2.2Z"/>
      <path class="st29" d="M1585.1,508.4c0,18.5.9,25.5,3.6,29.4,5.2,7.5,13.6,10.2,22.6,7.2,12.4-4.3,14.5-9.3,14.5-36.6v-24.4h-5.7c-3.8,0-5.7,7.4-5.7,22.2,0,23.5-1.6,27.6-10.4,27.6s-7.7-3.6-7.7-28.5,0-21.2-5.7-21.2h-5.7v24.4h.2Z"/>
      <path class="st26" d="M1700.4,514.5v30.5h11.3v-61h-11.3v30.5Z"/>
      <path class="st27" d="M1828.1,486.7c-14.2,40-19.2,54.5-19.2,56.3s2.5,2,5.4,2,6.1-1.8,7.9-6.8c2-6.1,3.2-6.8,12.4-6.8s10.2.7,12.4,6.8c1.6,5.2,3.6,6.8,7.9,6.8s5.9-1.4,5.7-2.9c0-1.4-4.3-14.9-9.7-29.8-8.8-24.6-10.2-27.1-15.8-27.8-3.4-.5-6.3.5-7,2.3h0ZM1840.6,517.2c0,1.6-2.5,2.9-5.7,2.9-6.3,0-6.8-.9-2.9-11.5l2.7-7.7,2.7,6.8c1.6,3.8,2.9,8.1,3.2,9.5h0Z"/>
      <path class="st25" d="M1876.3,486.5c-3.6,2-4.1,5.9-4.1,30.3v28.3h5.7c5.4,0,5.4-.5,6.1-21l.7-20.8,12,20.8c9.5,16.5,13.1,21,17.2,21s5-.5,4.3-30.1l-.7-29.8-5.9-.7-6.1-.9,1.6,16c1.4,16.5-.5,20.3-5,10.4-3.8-8.6-17-25.8-19.7-25.8s-4.1.9-6.1,2.3Z"/>
      <path class="st31" d="M1933.2,514.5v30.5h11.3v-61h-11.3v30.5Z"/>
      <path class="st33" d="M1961.9,485.6c-.9.7-1.6,14.5-1.6,30.5v28.9h5.7c5.7,0,5.7-.2,5.7-18.8l.2-18.5,7.9,15.4c4.3,8.6,9,15.1,10.6,14.7s5.9-7.5,9.9-15.4l7.2-14.7v18.5l.2,18.8h12.4l-.7-27.6c-.5-22.6-1.4-28.3-4.3-30.7-7.9-5.9-11.3-3.2-17.9,14.2-6.1,15.6-9.9,21-9.9,14s-2.9-9-6.8-17c-5.4-11.3-7.7-14-12-14s-6.1.7-6.8,1.6h.2Z"/>
      <path class="st32" d="M2049.6,486.7c-.5,1.6-5.4,15.4-10.9,30.5l-9.9,27.8h6.1c5,0,6.8-1.4,8.8-6.8,2-6.1,3.2-6.8,12.4-6.8s10.2.7,12.4,6.8c1.6,5.2,3.6,6.8,7.9,6.8s5.9-.7,5.9-1.8c-.2-.9-4.5-14.2-9.9-29.8-9-26-10.2-28.3-15.8-28.9-3.4-.5-6.3.5-7,2.3h0ZM2060.7,513.8c1.4,5.7.9,6.3-4.3,6.3s-6.6-.9-3.2-11.3c2.9-7.9,4.7-6.6,7.5,5Z"/>
      <path class="st30" d="M2093.7,514.5v30.5h17c16.5,0,17-.2,17-5.7s-.7-5.7-11.3-5.7h-11.3v-49.7h-11.3v30.5h0Z"/>
      <path class="st34" d="M2141.2,514.5v30.5h17c16.5,0,17-.2,17-5.7s-.7-5.7-11.3-5.7-11.3-.2-11.3-6.6.7-6.8,9.7-7.5c7.9-.5,9.7-1.6,10.2-5.9.7-4.5-.2-5-9.5-5s-10.4-.2-10.4-6.8.2-6.8,11.5-6.8,11.3-.5,10.6-5.2c-.7-4.5-2-5-17-5.7l-16.5-.7v31.1Z"/>
    </g>
  </g>
</svg>