<?xml version="1.0" encoding="UTF-8"?>
<svg id="Capa_1" xmlns="http://www.w3.org/2000/svg" xmlns:xlink="http://www.w3.org/1999/xlink" version="1.1" viewBox="0 0 612.8 612.2">
  <!-- Generator: Adobe Illustrator 29.0.0, SVG Export Plug-In . SVG Version: 2.1.0 Build 186)  -->
  <defs>
    <style>
      .st0 {
        stroke: url(#Degradado_sin_nombre_2);
      }

      .st0, .st1 {
        fill: #fff;
      }

      .st1 {
        stroke: url(#Degradado_sin_nombre_21);
      }
    </style>
    <linearGradient id="Degradado_sin_nombre_2" data-name="Degradado sin nombre 2" x1="-.5" y1="306.2" x2="613.3" y2="306.2" gradientUnits="userSpaceOnUse">
      <stop offset="0" stop-color="#fff"/>
      <stop offset="1" stop-color="#000"/>
    </linearGradient>
    <linearGradient id="Degradado_sin_nombre_21" data-name="Degradado sin nombre 2" x1="63.1" y1="143.2" x2="548.3" y2="143.2" xlink:href="#Degradado_sin_nombre_2"/>
  </defs>
  <path class="st0" d="M283.5.8c-48,3.6-95.5,19.1-136.6,44.5C30.5,117.3-23.4,249.6,9.5,382.5c14.4,58.3,41.1,103.4,87.1,147.2,36,34.5,86.8,61.7,137.3,73.6,48,11.4,94,11.9,140.1,1.7,70.8-15.6,134.9-56.9,178.6-115,52.1-69.3,70.9-152.1,54.3-240.2-15.7-83.7-65.6-156.9-137.9-202.6C415.1,13.2,346.6-3.9,283.5.8ZM330,19.2c25.1,1.5,58.2,9.4,84.4,20.1,66.1,27.1,118,75.2,150.2,139.4,15.7,31.4,24.1,60.4,28.5,98.5,1.6,13.8,1.6,55.2,0,66.5-4.9,35-12.1,58.8-26.8,89.2-5.5,11.5-8.1,15.8-9.2,15.6-.9-.2-4.1-4.1-7.3-8.8-8.2-12.3-13.3-17.6-27-28.6-23.7-19-29.4-27-30.9-43.6-2.1-22.7-3.3-29.1-10.8-58.9-8.3-33.3-11.5-42.4-16.4-46.5-2.6-2.2-3.2-2.3-5-1.1-1.1.7-4.4,5.6-7.3,10.8s-5.9,9.5-6.8,9.7c-1.1.2-2.7-2.1-5.4-8.1-5.1-10.8-9.1-13.9-13.4-10-1.5,1.4-1.8,3.2-1.8,12s-1.3,14.3-6.8,14.3-24.7,9.2-29.2,12.8c-3.6,2.9-10.3,11.5-15.3,19.6-2.3,3.7-4.2,5.2-10.5,8.3-9.9,4.9-11.5,7.6-10.9,18.3.8,15.6,7,23.3,25.3,31.3,14,6.2,19.1,9.9,22.9,16.8,2.8,5.1,3,6,2.9,16.4,0,10.6-.2,11.6-5.1,25.5-6.6,18.6-7.7,24.7-7,36.3.8,11.9,3.9,23,13.2,47.2,8.2,21.5,11.1,31.3,12.1,41.1,1,9.7.4,10.3-17.8,16.2-8.4,2.8-18.2,5.7-21.8,6.6-37.9,9-78.7,10.3-118,3.8-14.7-2.4-14.5-2.1-14.3-25,.2-27.6,3.9-47.7,12.8-69.2,11.4-27.5,15.4-43.2,16.2-62.5.6-16.1.3-18.4-8.4-53-9.1-36.6-8.5-51.6,2.7-63.8,6.2-6.8,10.6-8.7,23.3-9.8,19.7-1.7,37.7-8.3,48.9-18,10.7-9.3,20.2-27.2,23.6-44.1,1-5.2.8-8.6-.7-10.2-3.1-3.3-5.7-4.2-19.6-6.6-14.2-2.5-30.2-6.2-36.5-8.5-5.6-2-9.5-5.6-12.7-11.8-7.4-14.6-23.9-24-46.9-26.7-22-2.6-46.6,2.8-63.1,14.1-6.8,4.7-18.6,16.3-24.4,24-8.8,12-13.4,25.8-11.1,33.6,4.9,16.4,38.9,43.8,54.3,43.8s8.1-1.9,11.1-9.4c2-5.1,2.2-7.2,2.1-24.1-.1-10.2-.7-22.9-1.5-28.3-1.4-9.7-1-13.3,1.2-11.1s6.6,28.8,7.5,39.4c.7,9.6-.5,21.9-3.2,30-2.3,7.2-8.3,13.5-13.8,14.6-12,2.2-30.2-7.3-51.4-26.8-4.6-4.3-8.7-7.6-9.1-7.3s-1.7,4-2.9,8.3c-4.3,16.2-11.9,35.9-19.6,51.2-5.6,11.2-15.5,23.6-41,51.5-7.5,8.2-18.8,21.4-25.2,29.2-6.3,7.9-11.6,14.3-11.9,14.3-1.4,0-9.8-21-15.3-38.3-3.6-11.3-8.4-34.5-10.3-49.7-1.9-15.6-1.6-54.5.5-70,8.1-57.9,28.8-105.5,64.5-148,9.1-10.9,29.4-30.8,39.7-39.1,25-20.1,56-37.6,85.7-48.3,16-5.8,27.2-8.7,46.8-12.1,22.1-3.9,43.3-4.8,73-3h0Z"/>
  <path class="st1" d="M291,68.8c-15,9.8-71,45.3-101,63.9-11.8,7.3-36.8,22.9-55.5,34.5s-41.2,25.5-50,30.8-17.1,10.7-18.5,12.2c-3.5,3.8-3.2,9.1.9,12.7,3.9,3.5,7.4,3.6,13.5.3,2.6-1.4,39.1-24,80.9-50.2,123.2-77.1,144.9-90.4,146.1-90,1.5.6,39.2,23.8,80.6,49.7,17.9,11.1,41.2,25.6,51.8,32.2s36.1,22.7,56.7,35.8,38.9,24.1,40.6,24.5c2.3.5,3.8.2,5.8-1.2,4.3-3.2,5.6-6.5,4.6-11-1.2-4.6,2.2-2.3-64.2-43.3-26.3-16.2-61.7-38.2-78.8-48.9-17-10.7-40.7-25.4-52.5-32.7s-26.4-16.3-32.5-20c-6-3.8-12.1-7-13.5-7.2-1.8-.2-5.9,1.9-15,7.9Z"/>
</svg>